<?xml version="1.0" standalone="no"?>
<!DOCTYPE svg PUBLIC "-//W3C//DTD SVG 1.1//EN" "http://www.w3.org/Graphics/SVG/1.1/DTD/svg11.dtd" >
<svg xmlns="http://www.w3.org/2000/svg" xmlns:xlink="http://www.w3.org/1999/xlink" version="1.1">
<metadata>
Created by FontForge 20161013 at Fri Dec 16 21:28:47 2011
 By ,,,
Copyright (c) Christian Schwartz, 2007. All rights reserved.
</metadata>
<defs>
<font id="BBVAWebLight-Regular" horiz-adv-x="1229" >
  <font-face 
    font-family="BBVA Web Light"
    font-weight="400"
    font-stretch="normal"
    units-per-em="2048"
    panose-1="2 11 3 3 4 0 0 2 0 4"
    ascent="1638"
    descent="-410"
    x-height="1067"
    cap-height="1434"
    bbox="-354 -356 2327 1839"
    underline-thickness="102"
    underline-position="-307"
    unicode-range="U+0020-FB02"
  />
<missing-glyph horiz-adv-x="1024" 
 />
    <glyph glyph-name=".notdef" horiz-adv-x="1024" 
 />
    <glyph glyph-name=".null" horiz-adv-x="0" 
 />
    <glyph glyph-name="nonmarkingreturn" horiz-adv-x="614" 
 />
    <glyph glyph-name="space" unicode=" " horiz-adv-x="614" 
 />
    <glyph glyph-name="exclam" unicode="!" horiz-adv-x="465" 
d="M178 1360v74h111v-74l-13 -1065h-86zM231 -8q-34 0 -55.5 22t-21.5 56q0 32 21.5 56t55.5 24q17 0 31.5 -6.5t25.5 -17.5t17 -25.5t6 -30.5q0 -34 -23 -56t-57 -22z" />
    <glyph glyph-name="quotedbl" unicode="&#x22;" horiz-adv-x="436" 
d="M57 1341v93h107v-93l-19 -266h-69zM272 1341v93h107v-93l-17 -266h-71z" />
    <glyph glyph-name="numbersign" unicode="#" 
d="M186 969h246l68 465h75l-69 -465h280l70 465h76l-70 -465h234v-97h-246l-39 -256h236v-98h-248l-76 -518h-76l76 518h-281l-75 -518h-76l78 518h-236v98h248l39 256h-234v97zM457 616h280l39 256h-282z" />
    <glyph glyph-name="dollar" unicode="$" 
d="M651 1442q61 -2 111 -11.5t92 -24.5t77 -35t66 -42v-92h-49q-28 24 -58 44.5t-65.5 36.5t-78.5 26t-95 12v-572q102 -27 179 -57.5t129.5 -74t79 -105.5t26.5 -152q0 -98 -30 -170.5t-85 -122t-131.5 -76.5t-169.5 -32v-203h-86v201q-74 2 -135 14t-111 30.5t-91 41.5
t-74 49v96h49q27 -27 61 -51.5t78 -44.5t99 -33t124 -16v624q-92 26 -163.5 57t-120.5 74t-74 102.5t-25 143.5q0 75 25.5 138t74 110t120.5 76.5t165 36.5v125h86v-123zM961 387q0 72 -21 119.5t-61 79.5t-98 53t-132 41v-600q71 5 128.5 26t98.5 58.5t63 92.5t22 130z
M283 1085q0 -66 19.5 -111t56 -76t89 -52t117.5 -39v547q-74 -7 -127 -30.5t-87.5 -59t-51 -81.5t-16.5 -98z" />
    <glyph glyph-name="percent" unicode="%" horiz-adv-x="1638" 
d="M442 805q48 0 87 18.5t67 54t43.5 87t15.5 118.5q0 69 -15.5 122t-43.5 89t-67 55t-87 19q-97 0 -155 -73.5t-58 -211.5q0 -134 58 -206t155 -72zM442 731q-63 0 -119.5 22.5t-99 67t-67.5 111t-25 155.5q0 88 25 155t67.5 111t99 66.5t119.5 22.5q62 0 118.5 -22.5
t99 -66.5t67.5 -111t25 -155q0 -89 -25 -155.5t-67.5 -111t-99 -67t-118.5 -22.5zM1276 1493h98l-1009 -1563h-99zM1198 66q48 0 87 18.5t67 54.5t43.5 88t15.5 119t-15.5 120t-43.5 89t-67 55t-87 19t-87.5 -19t-67.5 -55t-43 -89t-15 -120q0 -134 58 -207t155 -73z
M1198 -8q-63 0 -119.5 22.5t-99 67t-67.5 111t-25 155.5t25 156t67.5 111.5t99 67t119.5 22.5q62 0 118 -22.5t98.5 -67t67.5 -111.5t25 -156t-25 -155.5t-67.5 -111t-98.5 -67t-118 -22.5z" />
    <glyph glyph-name="ampersand" unicode="&#x26;" horiz-adv-x="1315" 
d="M983 184q-35 -42 -80.5 -77.5t-99.5 -61t-117 -39.5t-133 -14q-118 0 -207.5 32t-150 88t-91 132t-30.5 164q0 86 27 153.5t73 119.5t106.5 89.5t127.5 63.5q-21 25 -41 54t-35.5 63t-25 74.5t-9.5 88.5q0 73 26.5 133.5t74.5 103.5t115.5 67t150.5 24q102 0 171 -23.5
t123 -68.5v-80h-51q-43 40 -100 63t-141 23q-60 0 -108.5 -17.5t-83 -50t-53 -77.5t-18.5 -99q0 -38 10.5 -74.5t31.5 -74t52 -78t72 -86.5l408 -457q24 46 47 99.5t42 111.5t33 119t21 123h92v-37q-20 -127 -65.5 -254.5t-108.5 -233.5l201 -225v-45h-90zM565 80
q123 0 209.5 45.5t149.5 124.5l-461 520q-59 -24 -110 -55t-88 -73t-58 -99t-21 -133q0 -62 21.5 -121.5t67.5 -106t117.5 -74.5t172.5 -28z" />
    <glyph glyph-name="quotesingle" unicode="'" horiz-adv-x="221" 
d="M57 1341v93h107v-93l-19 -266h-69z" />
    <glyph glyph-name="parenleft" unicode="(" horiz-adv-x="561" 
d="M526 1448q-34 -19 -74 -47.5t-80 -71t-77.5 -100t-66 -133.5t-45.5 -172t-17 -215q0 -118 16.5 -213t45 -171t65 -134t76.5 -101t80.5 -72.5t76.5 -48.5v-69h-32q-44 18 -93 50t-97 79.5t-92 112t-77.5 148.5t-53.5 188t-20 231q0 128 20 232.5t53.5 188.5t77.5 148
t92 111t97 78.5t93 50.5h32v-70z" />
    <glyph glyph-name="parenright" unicode=")" horiz-adv-x="561" 
d="M35 1518h33q43 -19 92 -50.5t97 -78.5t92 -111t77.5 -148t53.5 -188.5t20 -232.5q0 -127 -20 -231t-53.5 -188t-77.5 -148.5t-92 -112t-97 -79.5t-92 -50h-33v69q36 19 76.5 48.5t80.5 72.5t76.5 101t65 134t45 171t16.5 213q0 119 -17 215t-45.5 172t-66 133.5
t-77.5 100t-80 71t-74 47.5v70z" />
    <glyph glyph-name="asterisk" unicode="*" horiz-adv-x="733" 
d="M397 1147l193 86l63 22l27 -92l-64 -22l-202 -47l141 -160l39 -55l-72 -56l-39 56l-116 182l-117 -182l-41 -56l-70 56l39 55l141 160l-204 47l-62 22l27 92l63 -22l193 -86l-17 217v70h95v-70z" />
    <glyph glyph-name="plus" unicode="+" 
d="M668 662v-386h-101v386h-360v92h360v385h101v-385h358v-92h-358z" />
    <glyph glyph-name="comma" unicode="," horiz-adv-x="614" 
d="M207 -102q42 8 64 28t22 47q0 22 -10.5 28.5t-22.5 14.5q-17 11 -25 25t-8 37q0 31 22 51.5t56 20.5q31 0 56.5 -25.5t25.5 -83.5q0 -52 -12.5 -89t-36 -61.5t-57 -38t-74.5 -18.5v64z" />
    <glyph glyph-name="hyphen" unicode="-" horiz-adv-x="467" 
d="M51 655h365v-90h-365v90z" />
    <glyph glyph-name="period" unicode="." horiz-adv-x="614" 
d="M307 -8q-34 0 -56 22t-22 56q0 32 22 56t56 24q16 0 30.5 -6.5t25.5 -17.5t17.5 -25.5t6.5 -30.5q0 -34 -24 -56t-56 -22z" />
    <glyph glyph-name="slash" unicode="/" horiz-adv-x="627" 
d="M600 1489l-489 -1589h-88v28l485 1590h92v-29z" />
    <glyph glyph-name="zero" unicode="0" 
d="M614 -8q-101 0 -193.5 44t-163 134t-113 226t-42.5 321q0 182 42.5 318t113 226.5t163 135.5t193.5 45t193.5 -45t163.5 -135.5t113 -226.5t42 -318q0 -185 -42 -321t-113 -226t-163.5 -134t-193.5 -44zM614 80q87 0 160.5 38.5t126.5 117.5t83 198.5t30 280.5
q0 162 -30 282t-83 199.5t-126.5 118.5t-160.5 39t-161 -39t-127 -118.5t-83 -199.5t-30 -282q0 -161 30 -280.5t83 -198.5t127 -117.5t161 -38.5z" />
    <glyph glyph-name="one" unicode="1" 
d="M641 0v1315l-375 -217h-47v71l459 265h74v-1434h-111z" />
    <glyph glyph-name="two" unicode="2" 
d="M1044 0h-892v92l432 428q78 78 141.5 147.5t109 135t70.5 129.5t25 131q0 135 -79 212t-233 77q-65 0 -118 -12t-96 -32.5t-77.5 -47.5t-62.5 -56h-53v78q33 31 76 59.5t95 51t113 36t130 13.5q101 0 178.5 -26t129.5 -75t78.5 -119.5t26.5 -158.5q0 -78 -30 -153
t-81.5 -148.5t-120 -147t-144.5 -149.5l-381 -373h763v-92z" />
    <glyph glyph-name="three" unicode="3" 
d="M563 -8q-68 0 -127.5 10.5t-110.5 29t-93.5 43t-75.5 52.5v84h55q24 -25 58 -48.5t77.5 -42t96 -29.5t114.5 -11q94 0 164.5 23t117.5 66t71 104.5t24 138.5q0 79 -28.5 133.5t-76.5 88.5t-112.5 49t-136.5 15h-129v93h112q76 0 138.5 17.5t107.5 52.5t69.5 88t24.5 124
q0 136 -78 208.5t-237 72.5q-61 0 -111 -9.5t-91 -25t-73 -36t-57 -42.5h-51v74q71 60 166.5 93.5t220.5 33.5q202 0 309 -91.5t107 -271.5q0 -68 -19 -121.5t-52 -94t-78.5 -68t-98.5 -43.5v-4q62 -15 114.5 -42t90 -68t58.5 -98t21 -130q0 -99 -31.5 -177t-92.5 -131.5
t-150.5 -81.5t-206.5 -28z" />
    <glyph glyph-name="four" unicode="4" 
d="M815 0v371h-688v104l698 959h101v-977h184v-86h-184v-371h-111zM223 457h592v811h-4l-588 -807v-4z" />
    <glyph glyph-name="five" unicode="5" 
d="M1059 485q0 -114 -38.5 -205t-107.5 -155t-165.5 -98.5t-212.5 -34.5q-69 0 -126.5 10.5t-105.5 27.5t-87 40t-71 49v86h54q24 -25 55.5 -48t72.5 -40.5t92.5 -28t115.5 -10.5q96 0 172.5 28t130 79.5t82 126t28.5 167.5q0 94 -26 162t-72 111t-108.5 63.5t-135.5 20.5
q-62 0 -112.5 -13.5t-91 -35t-70.5 -48.5t-51 -53h-80v748h786v-95h-698v-538h6q18 18 49 39.5t73 40t95 31t117 12.5q86 0 164 -25.5t137 -79t94 -136.5t35 -198z" />
    <glyph glyph-name="six" unicode="6" 
d="M643 -8q-107 0 -200.5 40t-162.5 125t-109 216t-40 313q0 187 47.5 328.5t131.5 236.5t199.5 143t252.5 48q51 0 92 -5t74 -13t60.5 -19.5t51.5 -24.5v-90h-51q-29 23 -86.5 44.5t-144.5 21.5q-116 0 -211 -43t-163 -127.5t-105.5 -210t-38.5 -289.5v-8q38 44 86.5 79.5
t104 61t118 39.5t129.5 14q89 0 168.5 -24t139.5 -74.5t95 -129t35 -187.5q0 -108 -34.5 -194.5t-96.5 -146.5t-149.5 -92t-192.5 -32zM655 786q-65 0 -124 -15.5t-111 -42.5t-96.5 -65t-79.5 -83q10 -135 43 -230t85.5 -155.5t121 -88.5t149.5 -28q84 0 152 25t115 73.5
t72.5 118.5t25.5 160q0 89 -26 152t-73 102.5t-111.5 58t-142.5 18.5z" />
    <glyph glyph-name="seven" unicode="7" 
d="M360 59l631 1276v4h-825v95h911v-105l-622 -1329h-95v59z" />
    <glyph glyph-name="eight" unicode="8" 
d="M614 -8q-121 0 -214 29.5t-156.5 82.5t-96 126.5t-32.5 162.5q0 71 24 132t65 109t97 81.5t121 48.5v4q-50 15 -94 44t-77 69.5t-52 92t-19 111.5q0 79 30.5 144.5t87.5 113t137 73.5t179 26t179 -26t136.5 -73.5t87 -113t30.5 -144.5q0 -60 -19 -111.5t-52 -92
t-76.5 -69.5t-92.5 -44v-4q67 -16 123 -49.5t97 -81.5t64 -108.5t23 -131.5q0 -89 -33 -162.5t-96.5 -126.5t-156.5 -82.5t-214 -29.5zM614 76q99 0 172.5 24t123 66.5t74 101.5t24.5 129t-25.5 130t-75 103.5t-123 68t-170.5 24.5q-98 0 -171.5 -24.5t-122.5 -68
t-74 -103.5t-25 -130t24.5 -129t73 -101.5t122.5 -66.5t173 -24zM614 809q78 0 138.5 19.5t102 55.5t63.5 86t22 111q0 62 -22 113t-63.5 87.5t-102 56.5t-138.5 20t-138.5 -20t-102 -56.5t-63 -87.5t-21.5 -113q0 -61 21.5 -111t63 -86t102 -55.5t138.5 -19.5z" />
    <glyph glyph-name="nine" unicode="9" 
d="M471 -8q-102 0 -174 17.5t-123 43.5v90h51q15 -11 39 -22.5t56.5 -21t71.5 -15.5t83 -6q252 0 382 170.5t130 499.5v8q-77 -90 -187 -142.5t-243 -52.5q-89 0 -170.5 24t-143 74.5t-98 129t-36.5 186.5q0 109 35.5 195.5t99.5 147t153 92.5t195 32q107 0 199.5 -40
t160.5 -125t107 -216t39 -313q0 -187 -43 -328.5t-124 -236.5t-197 -143t-263 -48zM580 647q63 0 120.5 15t108 42t94.5 64t80 82q-10 135 -42.5 231t-83.5 157t-118 89.5t-147 28.5q-84 0 -153 -25t-118 -73.5t-75.5 -118.5t-26.5 -160q0 -89 27.5 -152t75.5 -103
t114 -58.5t144 -18.5z" />
    <glyph glyph-name="colon" unicode=":" horiz-adv-x="614" 
d="M307 629q-34 0 -56 23t-22 55q0 34 22 56.5t56 22.5q32 0 55 -22.5t23 -56.5q0 -32 -23 -55t-55 -23zM307 -8q-34 0 -56 22t-22 56q0 32 22 56t56 24q32 0 55 -24t23 -56q0 -34 -23 -56t-55 -22z" />
    <glyph glyph-name="semicolon" unicode=";" horiz-adv-x="614" 
d="M207 -102q40 8 63 28t23 47q0 22 -10.5 28.5t-22.5 14.5q-17 11 -25 25t-8 37q0 31 22 51.5t54 20.5t57 -25t25 -84q0 -52 -12.5 -89t-35.5 -61.5t-56 -38t-74 -18.5v64zM307 629q-34 0 -56 23t-22 55q0 34 22 56.5t56 22.5q32 0 55 -22.5t23 -56.5q0 -32 -23 -55
t-55 -23z" />
    <glyph glyph-name="less" unicode="&#x3c;" 
d="M211 717l764 403h35v-86l-695 -356v-4l695 -359v-86h-35l-764 404v84z" />
    <glyph glyph-name="equal" unicode="=" 
d="M186 770v90h854v-90h-854zM186 428v90h854v-90h-854z" />
    <glyph glyph-name="greater" unicode="&#x3e;" 
d="M1018 631l-762 -402h-37v86l694 357v2l-694 358v88h37l762 -405v-84z" />
    <glyph glyph-name="question" unicode="?" horiz-adv-x="881" 
d="M297 295q-11 83 -5.5 143t27 111t60.5 98.5t96 106.5q37 37 77 75t73.5 81.5t55 95t21.5 114.5q0 113 -67 174.5t-197 61.5q-61 0 -110 -10t-87 -26.5t-66.5 -39t-47.5 -47.5h-53v86q27 24 61.5 46t79 39t100.5 27.5t125 10.5q86 0 155 -20.5t117.5 -61t74.5 -102
t26 -142.5q0 -71 -23 -127.5t-60.5 -105t-85.5 -94t-99 -95.5q-42 -41 -75.5 -78.5t-55.5 -82.5t-30 -102t1 -136h-88zM348 -8q-34 0 -56 22t-22 56q0 32 22 56t56 24q16 0 30.5 -6.5t25.5 -17.5t17.5 -25.5t6.5 -30.5q0 -34 -24 -56t-56 -22z" />
    <glyph glyph-name="at" unicode="@" horiz-adv-x="1759" 
d="M870 -244q-104 0 -204 18t-189 56.5t-163.5 98.5t-128.5 143t-84.5 190t-30.5 240q0 137 36 253t98 210t145.5 165t179.5 119t199 72.5t204 24.5q157 0 295 -43t241 -126.5t162.5 -207t59.5 -283.5q0 -142 -40 -244t-104.5 -167.5t-144.5 -96.5t-160 -31q-58 0 -97 15
t-62 39.5t-32.5 57t-7.5 67.5q-29 -33 -64.5 -65.5t-77.5 -59t-90.5 -42.5t-102.5 -16q-51 0 -94 16.5t-74 49.5t-48.5 82t-17.5 115q0 64 16.5 129.5t47 126.5t74.5 115t98.5 93.5t118.5 62.5t135 23q40 0 72 -6t57.5 -15.5t45 -22.5t36.5 -27q12 32 25.5 48.5t41.5 16.5
h33l-129 -542q-11 -42 -11 -76.5t12.5 -58.5t39.5 -37t71 -13q61 0 122 25t110 80.5t79.5 143.5t30.5 214q0 141 -49 249.5t-137.5 182.5t-211 112t-269.5 38q-92 0 -185 -21.5t-178.5 -64.5t-160 -107t-129 -149.5t-86 -191.5t-31.5 -232q0 -180 55.5 -307t151.5 -207.5
t225 -118t276 -37.5q78 0 152.5 10t142 29t125 46.5t101.5 62.5h39v-68q-48 -36 -110 -65t-134 -49t-152 -31t-164 -11zM721 221q53 0 98 18t85 47t76.5 65.5t72.5 74.5l92 393q-32 25 -72.5 41.5t-107.5 16.5q-55 0 -106 -18.5t-95 -51.5t-80.5 -78t-62.5 -97.5t-40 -110
t-14 -115.5q0 -49 12 -84t33 -57.5t49 -33t60 -10.5z" />
    <glyph glyph-name="A" unicode="A" horiz-adv-x="1253" 
d="M61 45l504 1389h129l498 -1389v-45h-96l-162 449h-621l-159 -449h-93v45zM344 539h559l-276 774h-4z" />
    <glyph glyph-name="B" unicode="B" horiz-adv-x="1188" 
d="M176 1434h406q95 0 178 -17.5t144.5 -58.5t96.5 -110t35 -171q0 -73 -19.5 -125t-54 -89.5t-81 -62t-99.5 -42.5v-2q67 -15 126 -39.5t103 -66.5t69.5 -104t25.5 -151q0 -104 -36 -178.5t-101.5 -122.5t-156 -71t-198.5 -23h-438v1434zM612 90q82 0 152 17.5t121 55
t79.5 96t28.5 140.5t-28 140.5t-80.5 95.5t-127.5 54.5t-169 17.5h-303v-617h327zM575 797q72 0 136 14t112 46.5t75.5 85t27.5 130.5q0 79 -27.5 131t-75 83t-110.5 43.5t-133 12.5h-295v-546h290z" />
    <glyph glyph-name="C" unicode="C" horiz-adv-x="1262" 
d="M717 -8q-137 0 -251 47.5t-195.5 140t-127 228.5t-45.5 313t50.5 311.5t136.5 225.5t201 137.5t243 46.5q85 0 149 -10.5t114.5 -29.5t91.5 -45.5t81 -58.5v-88h-51q-30 30 -65 56t-80 45.5t-102 31t-132 11.5q-111 0 -207 -40t-166.5 -119t-110.5 -197t-40 -273
q0 -158 36 -278.5t102 -202t160 -123t210 -41.5q81 0 145 14t115 37.5t91 54t73 64.5h47v-82q-37 -35 -82.5 -66.5t-103.5 -56t-129 -39t-158 -14.5z" />
    <glyph glyph-name="D" unicode="D" horiz-adv-x="1366" 
d="M176 1434h383q177 0 312 -40t226 -126.5t137 -222t46 -326.5t-46 -327t-137 -223t-226.5 -128t-313.5 -41h-381v1434zM557 90q155 0 270 34.5t190.5 109.5t112.5 194t37 289q0 169 -37 288t-112.5 194t-190.5 109.5t-270 34.5h-272v-1253h272z" />
    <glyph glyph-name="E" unicode="E" horiz-adv-x="1128" 
d="M176 1434h854v-93h-745v-557h563v-90h-563v-604h774v-90h-883v1434z" />
    <glyph glyph-name="F" unicode="F" horiz-adv-x="1100" 
d="M176 0v1434h854v-93h-745v-593h553v-91h-553v-657h-109z" />
    <glyph glyph-name="G" unicode="G" horiz-adv-x="1372" 
d="M745 -8q-151 0 -273 45.5t-207.5 137t-132 228t-46.5 318.5q0 181 52 316.5t143 225.5t213 134.5t262 44.5q75 0 136.5 -8.5t112.5 -24t93 -36t78 -44.5v-94h-54q-55 54 -143.5 86.5t-222.5 32.5q-119 0 -220.5 -37.5t-175.5 -115t-115.5 -196t-41.5 -280.5t36.5 -283
t106 -201.5t170.5 -120.5t229 -40q70 0 125 6.5t98.5 18t78 26t63.5 29.5v452h-317v90h426v-593q-37 -22 -83 -43t-104 -37.5t-129 -26.5t-158 -10z" />
    <glyph glyph-name="H" unicode="H" horiz-adv-x="1399" 
d="M176 0v1434h109v-650h829v650h109v-1434h-109v694h-829v-694h-109z" />
    <glyph glyph-name="I" unicode="I" horiz-adv-x="471" 
d="M180 0v1434h111v-1434h-111z" />
    <glyph glyph-name="J" unicode="J" horiz-adv-x="842" 
d="M315 -10q-99 0 -165.5 22t-114.5 54v88h47q15 -15 35 -28.5t47 -24t63 -17t82 -6.5q132 0 193 65t61 187v1104h111v-1106q0 -79 -22 -142t-66 -106.5t-112 -66.5t-159 -23z" />
    <glyph glyph-name="K" unicode="K" horiz-adv-x="1266" 
d="M176 1434h109v-824l764 824h86v-43l-506 -543l557 -805v-43h-96l-533 772l-272 -289v-483h-109v1434z" />
    <glyph glyph-name="L" unicode="L" horiz-adv-x="1104" 
d="M176 0v1434h109v-1344h747v-90h-856z" />
    <glyph glyph-name="M" unicode="M" horiz-adv-x="1663" 
d="M176 1434h170l488 -1268h4l485 1268h166v-1434h-111v1303h-10l-502 -1303h-80l-499 1303h-8v-1303h-103v1434z" />
    <glyph glyph-name="N" unicode="N" horiz-adv-x="1389" 
d="M176 1434h135l797 -1237h2v1237h104v-1434h-104l-827 1288h-4v-1288h-103v1434z" />
    <glyph glyph-name="O" unicode="O" horiz-adv-x="1458" 
d="M731 -8q-132 0 -249.5 47t-205 139t-139 227t-51.5 312q0 176 51.5 311t139 227t205 139.5t249.5 47.5q87 0 168.5 -21t152.5 -62.5t130 -103t101 -142t65.5 -180t23.5 -216.5q0 -118 -23.5 -217.5t-65.5 -180t-101 -141.5t-130 -102.5t-152.5 -62.5t-168.5 -21zM731 78
q111 0 208 40.5t168 120.5t112 199t41 277q0 157 -41 277t-112 201t-168 122t-208 41q-113 0 -210 -41t-168.5 -122t-112.5 -201t-41 -277q0 -158 41 -277t112.5 -199t168.5 -120.5t210 -40.5z" />
    <glyph glyph-name="P" unicode="P" horiz-adv-x="1130" 
d="M176 1434h373q115 0 209 -21.5t160.5 -70t102.5 -126.5t36 -192q0 -116 -35 -196.5t-101 -131t-160.5 -73.5t-213.5 -23h-262v-600h-109v1434zM285 688h262q97 0 171.5 17.5t125 56.5t76.5 102.5t26 155.5t-28 154t-79.5 99.5t-125.5 53.5t-166 16h-262v-655z" />
    <glyph glyph-name="Q" unicode="Q" horiz-adv-x="1466" 
d="M635 -10q-125 31 -226 89t-173 147t-111 210.5t-39 280.5q0 177 51.5 312t139 227t205 139t249.5 47q87 0 168.5 -21t152.5 -62.5t130 -102.5t101 -141.5t65.5 -180t23.5 -217.5q0 -153 -39.5 -275.5t-108.5 -211.5t-163 -143.5t-203 -72.5v-4l539 -106v-90h-62zM733 76
q112 0 208.5 40.5t167 120.5t111 200t40.5 278q0 159 -41 279t-112 200.5t-168 121t-208 40.5q-113 0 -210 -40.5t-168.5 -121t-112.5 -200.5t-41 -279q0 -158 41 -278t113 -200t169.5 -120.5t210.5 -40.5z" />
    <glyph glyph-name="R" unicode="R" 
d="M688 655q-59 -6 -125 -6h-272v-649h-111v1434h383q109 0 199.5 -20.5t155.5 -67t101 -120.5t36 -182q0 -77 -18 -137.5t-51.5 -105.5t-82 -75t-108.5 -48l342 -635v-43h-95zM291 737h268q90 0 161.5 14t121 48.5t76 93t26.5 147.5q0 87 -28 145t-79 93.5t-122 50
t-156 14.5h-268v-606z" />
    <glyph glyph-name="S" unicode="S" horiz-adv-x="1044" 
d="M489 -8q-80 0 -146 10.5t-120 29t-97.5 43t-78.5 52.5v96h49q28 -29 64.5 -54.5t83.5 -45.5t107 -31.5t136 -11.5q82 0 150.5 17.5t117.5 54.5t76 95.5t27 139.5q0 79 -29 129t-79.5 83t-118.5 53.5t-146 41.5q-96 25 -171 55.5t-126.5 74t-78.5 105t-27 148.5
q0 78 28 144.5t82.5 115.5t135.5 77t186 28q67 0 123 -8.5t103 -23.5t85.5 -35.5t71.5 -45.5v-92h-51q-29 26 -61.5 47.5t-72 37t-88 24t-108.5 8.5q-87 0 -149.5 -20.5t-102.5 -57t-59 -85.5t-19 -106q0 -74 24.5 -121.5t68 -79t104 -52t133.5 -39.5q108 -29 192 -59.5
t141 -74.5t86.5 -107t29.5 -157q0 -104 -35 -180t-98 -125.5t-150.5 -73.5t-192.5 -24z" />
    <glyph glyph-name="T" unicode="T" horiz-adv-x="1137" 
d="M514 0v1343h-469v91h1047v-91h-467v-1343h-111z" />
    <glyph glyph-name="U" unicode="U" horiz-adv-x="1380" 
d="M702 82q85 0 159.5 18.5t130 64t88 122.5t32.5 194v953h105v-949q0 -135 -39.5 -229t-109.5 -152.5t-165.5 -85t-206.5 -26.5q-110 0 -206.5 26t-168.5 84.5t-113.5 152.5t-41.5 230v949h108v-953q0 -115 34 -192t92.5 -123t136.5 -65t165 -19z" />
    <glyph glyph-name="V" unicode="V" horiz-adv-x="1245" 
d="M59 1389v45h95l469 -1303h4l469 1303h90v-45l-506 -1389h-115z" />
    <glyph glyph-name="W" unicode="W" horiz-adv-x="1776" 
d="M63 1391v43h101l319 -1260h6l355 1260h94l356 -1260h6l318 1260h94v-43l-358 -1391h-119l-344 1243h-4l-346 -1243h-119z" />
    <glyph glyph-name="X" unicode="X" horiz-adv-x="1227" 
d="M72 45l471 700l-441 644v45h95l421 -617l412 617h86v-45l-432 -646l471 -698v-45h-94l-453 674l-450 -674h-86v45z" />
    <glyph glyph-name="Y" unicode="Y" horiz-adv-x="1126" 
d="M510 0v600l-457 789v45h94l420 -732h2l420 732h86v-45l-454 -785v-604h-111z" />
    <glyph glyph-name="Z" unicode="Z" horiz-adv-x="1151" 
d="M68 94l893 1249v3h-838v88h954v-97l-891 -1247v-4h869v-86h-987v94z" />
    <glyph glyph-name="bracketleft" unicode="[" horiz-adv-x="559" 
d="M156 1518h356v-82h-254v-1454h254v-82h-356v1618z" />
    <glyph glyph-name="backslash" unicode="\" horiz-adv-x="627" 
d="M29 1518h88l489 -1590v-28h-92l-485 1589v29z" />
    <glyph glyph-name="bracketright" unicode="]" horiz-adv-x="559" 
d="M403 -100h-354v82h252v1454h-252v82h354v-1618z" />
    <glyph glyph-name="asciicircum" unicode="^" horiz-adv-x="807" 
d="M55 991l303 443h95l299 -443v-35h-86l-258 379h-5l-264 -379h-84v35z" />
    <glyph glyph-name="underscore" unicode="_" horiz-adv-x="672" 
d="M-4 -332v80h680v-80h-680z" />
    <glyph glyph-name="grave" unicode="`" horiz-adv-x="848" 
d="M410 1174l-193 219v41h100l154 -228v-32h-61z" />
    <glyph glyph-name="a" unicode="a" horiz-adv-x="1010" 
d="M768 145q-34 -35 -70 -64t-79.5 -49t-96.5 -31t-119 -11q-74 0 -137 20t-109 59t-72 97t-26 133q0 81 32 140t89 97.5t135.5 57t171.5 18.5q78 0 146.5 -7.5t134.5 -24.5v192q0 62 -19 105t-53.5 69.5t-83 38.5t-106.5 12q-119 0 -200 -27t-132 -67h-43v84q32 18 71 34.5
t85.5 29t102 20.5t120.5 8q81 0 147.5 -16t114 -51.5t73 -93t25.5 -140.5v-778h-28q-23 0 -37 4t-22.5 15.5t-11.5 32t-3 52.5v41zM418 70q64 0 115 13t93 36t76 55t66 70v262q-62 14 -129.5 23.5t-144.5 9.5q-71 0 -131.5 -13t-104.5 -41.5t-69 -72.5t-25 -105
q0 -64 19.5 -109t53.5 -73.5t80.5 -41.5t100.5 -13z" />
    <glyph glyph-name="b" unicode="b" horiz-adv-x="1135" 
d="M250 877q31 37 72 73t91.5 64.5t110.5 46.5t131 18q76 0 149.5 -25.5t131.5 -87t93.5 -164t35.5 -255.5q0 -158 -40.5 -264.5t-106 -171t-147 -92t-163.5 -27.5q-65 0 -117.5 9t-96 25.5t-79.5 39.5t-67 51q-6 -50 -24.5 -83.5t-49.5 -33.5h-27v1434h37q22 0 35.5 -3.5
t20 -14t8.5 -30t2 -51.5v-458zM639 995q-65 0 -120.5 -18.5t-104 -49.5t-89.5 -70t-75 -81v-563q31 -35 66.5 -61t76.5 -44t89 -27t106 -9q66 0 132.5 21t120 74t87 143.5t33.5 228.5q0 136 -29.5 224.5t-76 140t-103.5 71.5t-113 20z" />
    <glyph glyph-name="c" unicode="c" horiz-adv-x="983" 
d="M567 -8q-117 0 -210 38t-157 108.5t-98 171.5t-34 227t37 226.5t104 170.5t160 107.5t204 37.5q66 0 118 -9t92.5 -23.5t70.5 -33t53 -36.5v-82h-53q-18 18 -43.5 36.5t-59.5 33t-78.5 23.5t-101.5 9q-89 0 -162.5 -31t-126 -90t-81.5 -144.5t-29 -194.5
q0 -110 27.5 -196t79 -145.5t125.5 -90.5t167 -31q62 0 111 11.5t86.5 29t64.5 39.5t46 43h47v-78q-23 -22 -55.5 -44.5t-77 -41t-101 -30t-125.5 -11.5z" />
    <glyph glyph-name="d" unicode="d" horiz-adv-x="1139" 
d="M883 184q-32 -41 -74 -76t-91.5 -60.5t-106 -40.5t-119.5 -15q-81 0 -157 27.5t-135 90t-94.5 164t-35.5 250.5q0 103 18.5 184.5t51 143.5t76.5 105t94.5 70t105.5 39.5t110 12.5q126 0 211.5 -36t145.5 -97v488h35q22 0 35.5 -3.5t21 -14t10 -30t2.5 -51.5v-1335h-53
q-16 0 -26 4.5t-15 17.5t-7 36.5t-3 60.5v65zM502 72q65 0 120 16.5t101.5 45.5t85.5 68.5t74 86.5v565q-32 34 -66.5 60.5t-76 45.5t-90 29t-107.5 10q-68 0 -134 -21t-118.5 -74.5t-84.5 -144.5t-32 -231q0 -133 28.5 -220.5t75 -140t105.5 -74t119 -21.5z" />
    <glyph glyph-name="e" unicode="e" horiz-adv-x="1042" 
d="M172 530q0 -226 102.5 -340t303.5 -114q64 0 115.5 9t92.5 24.5t71.5 35.5t51.5 41h45v-75q-28 -23 -64.5 -44t-84 -38t-106.5 -27t-132 -10q-120 0 -213 37.5t-156.5 107.5t-96.5 169.5t-33 223.5q0 126 35.5 227.5t98.5 173t150 110t189 38.5q98 0 179 -29t138.5 -90
t89 -155.5t31.5 -224.5q0 -16 -1 -31t-1 -19h-805zM541 1001q-74 0 -137 -24.5t-111 -73.5t-79 -123t-40 -172h703q-3 107 -28 181.5t-68.5 121.5t-104.5 68.5t-135 21.5z" />
    <glyph glyph-name="f" unicode="f" horiz-adv-x="553" 
d="M25 1067h141v107q0 70 19 120t52 82.5t79 48t100 15.5q45 0 78 -4t53 -9v-71h-107q-41 0 -73 -8.5t-54 -30.5t-33.5 -58.5t-11.5 -91.5v-100h258v-78h-258v-989h-102v989h-141v78z" />
    <glyph glyph-name="g" unicode="g" horiz-adv-x="1135" 
d="M987 12q0 -88 -36 -154t-97.5 -110t-143.5 -66t-175 -22q-138 0 -242 28t-166 66v80h41q51 -40 143.5 -67t210.5 -27q75 0 140.5 15t114.5 48t77.5 86t28.5 129v179q-34 -40 -76 -74.5t-91.5 -60t-107 -40t-121.5 -14.5q-77 0 -152 27t-134 89t-95 162t-36 246
q0 151 40.5 255.5t105.5 169.5t147 93.5t165 28.5q124 0 210 -36.5t145 -96.5q2 24 6 46t11.5 38.5t20 26.5t33.5 10h33v-1055zM502 88q64 0 119 16.5t102 45.5t86.5 68.5t73.5 84.5v549q-32 34 -67.5 61.5t-76 46.5t-88 29t-104.5 10q-66 0 -132.5 -20t-120 -72t-87 -141.5
t-33.5 -228.5q0 -132 28.5 -218.5t75 -137.5t105.5 -72t119 -21z" />
    <glyph glyph-name="h" unicode="h" horiz-adv-x="1133" 
d="M250 897q45 36 97.5 69t111.5 58t124 40t136 15q56 0 106 -13t88 -45.5t60 -87t22 -138.5v-795h-102v782q0 64 -16.5 105t-45 64.5t-67.5 32.5t-84 9q-59 0 -116.5 -15t-112 -40.5t-105.5 -58t-96 -66.5v-813h-103v1434h37q22 0 35 -3t20 -13.5t9 -30t2 -52.5v-438z" />
    <glyph glyph-name="i" unicode="i" horiz-adv-x="408" 
d="M152 0v1067h32q23 0 37 -3.5t21.5 -15t9.5 -33.5t2 -59v-956h-102zM205 1231q-29 0 -49.5 20t-20.5 49q0 28 20.5 49t49.5 21t49 -21t20 -49q0 -29 -20 -49t-49 -20z" />
    <glyph glyph-name="j" unicode="j" horiz-adv-x="408" 
d="M-47 -258h57q75 0 108.5 39.5t33.5 112.5v1173h30q24 0 38 -3.5t21.5 -15t10 -33.5t2.5 -59v-1067q0 -106 -53.5 -165.5t-161.5 -59.5q-26 0 -47 1.5t-39 6.5v70zM205 1231q-29 0 -49.5 20t-20.5 49q0 28 20.5 49t49.5 21t49 -21t20 -49q0 -29 -20 -49t-49 -20z" />
    <glyph glyph-name="k" unicode="k" horiz-adv-x="975" 
d="M250 465l553 602h80v-41l-373 -403l405 -584v-39h-90l-383 553l-192 -207v-346h-103v1434h37q22 0 35.5 -3.5t20 -14t8.5 -30t2 -51.5v-870z" />
    <glyph glyph-name="l" unicode="l" horiz-adv-x="401" 
d="M150 0v1434h36q22 0 35.5 -3.5t20 -14t8.5 -30t2 -51.5v-1335h-102z" />
    <glyph glyph-name="m" unicode="m" horiz-adv-x="1761" 
d="M250 905q38 31 84.5 62t100 56t114 40.5t127.5 15.5q43 0 84 -9.5t74.5 -30.5t58.5 -54.5t37 -81.5q40 34 88.5 66t102.5 56.5t114 39t125 14.5q54 0 102 -14t84 -45.5t57 -81t21 -121.5v-817h-102v791q0 59 -14 98t-39.5 62t-62.5 32.5t-83 9.5q-57 0 -108.5 -14.5
t-99 -38.5t-91.5 -55t-86 -64v-821h-102v791q0 59 -14.5 98t-41 62t-62.5 32.5t-79 9.5q-59 0 -111.5 -14.5t-100.5 -38.5t-92 -55.5t-85 -65.5v-819h-103v1067h48q17 0 27.5 -3.5t16.5 -14.5t8.5 -32t2.5 -56v-56z" />
    <glyph glyph-name="n" unicode="n" horiz-adv-x="1133" 
d="M250 897q45 36 97.5 69t111.5 58t124 40t136 15q56 0 106 -13t88 -45.5t60 -87t22 -138.5v-795h-102v782q0 64 -16.5 105t-45 64.5t-67.5 32.5t-84 9q-59 0 -116.5 -15t-112 -40.5t-105.5 -58t-96 -66.5v-813h-103v1067h48q17 0 27.5 -3.5t16.5 -14.5t8.5 -32t2.5 -56
v-64z" />
    <glyph glyph-name="o" unicode="o" horiz-adv-x="1128" 
d="M563 -8q-111 0 -202 37.5t-156 107.5t-101 170.5t-36 227.5q0 126 36 226.5t101 171t156 108.5t202 38q112 0 204 -38t157 -108.5t101 -171t36 -226.5q0 -127 -36 -227.5t-101 -170.5t-157 -107.5t-204 -37.5zM563 72q91 0 164 31t124 90.5t78 145.5t27 196
q0 109 -27 195t-78 146t-124 91.5t-164 31.5q-90 0 -162.5 -31.5t-123.5 -91.5t-78 -146t-27 -195q0 -110 27 -196t78 -145.5t123.5 -90.5t162.5 -31z" />
    <glyph glyph-name="p" unicode="p" horiz-adv-x="1135" 
d="M250 877q31 37 72 73t91.5 64.5t110.5 46.5t131 18q76 0 149.5 -25.5t131.5 -86t93.5 -162t35.5 -254.5q0 -158 -40.5 -264.5t-106 -170.5t-147.5 -91t-165 -27q-64 0 -116 9t-95 25.5t-78.5 39.5t-66.5 51v-455h-103v1399h48q17 0 27.5 -3.5t16.5 -14.5t8.5 -32t2.5 -56
v-84zM639 995q-65 0 -120.5 -18.5t-104 -49.5t-89.5 -70t-75 -81v-555q31 -35 66.5 -61t76.5 -44t89 -27t106 -9q66 0 132.5 20t120 72t87 141.5t33.5 227.5q0 91 -13.5 160t-37 119.5t-55 84t-67 53.5t-74 28.5t-75.5 8.5z" />
    <glyph glyph-name="q" unicode="q" horiz-adv-x="1135" 
d="M883 190q-32 -41 -74 -76t-91.5 -60.5t-106 -40.5t-119.5 -15q-80 0 -156 26.5t-135 88.5t-95 163t-36 250q0 155 40.5 261t105.5 171t146.5 93t163.5 28q127 0 213.5 -36t145.5 -99q2 25 6.5 47t12.5 39t20 27t30 10h33v-1399h-104v522zM502 80q65 0 120 16.5t101.5 45
t85.5 68t74 85.5v557q-32 34 -67 61.5t-76 46.5t-89.5 29t-107.5 10q-68 0 -134 -21t-118.5 -73.5t-84.5 -143t-32 -229.5q0 -134 28.5 -221t75 -138.5t105.5 -72t119 -20.5z" />
    <glyph glyph-name="r" unicode="r" horiz-adv-x="702" 
d="M250 883q31 37 68 71.5t81 61.5t94 43t107 16q20 0 33 -2t16 -4v-84q-7 0 -15 1q-7 0 -15 0.5t-15 0.5q-58 0 -108.5 -17t-94.5 -45.5t-81.5 -64.5t-69.5 -74v-786h-103v1067h48q17 0 27.5 -3.5t16.5 -15.5t8.5 -35.5t2.5 -62.5v-67z" />
    <glyph glyph-name="s" unicode="s" horiz-adv-x="874" 
d="M416 -8q-69 0 -122.5 9.5t-95 24t-72.5 32t-54 34.5v84h41q19 -18 46.5 -36.5t64.5 -33.5t83.5 -24.5t104.5 -9.5q148 0 219 59t71 170q0 47 -14 81t-47.5 58.5t-88.5 41.5t-136 30q-77 12 -138.5 33t-105 54t-67 81.5t-23.5 116.5q0 69 26 121.5t73 88.5t113 54t146 18
q58 0 105.5 -7t85.5 -18.5t67 -25.5t52 -29v-84h-41q-22 18 -47 33.5t-56.5 26.5t-71.5 17.5t-92 6.5q-131 0 -197.5 -48.5t-66.5 -145.5q0 -46 14.5 -79t47.5 -56.5t86 -40t131 -29.5q84 -13 148.5 -33.5t108.5 -54t66.5 -83t22.5 -120.5q0 -74 -23 -132.5t-70.5 -99.5
t-120.5 -63t-173 -22z" />
    <glyph glyph-name="t" unicode="t" horiz-adv-x="608" 
d="M25 1067h141v297h102v-297h285v-78h-285v-745q0 -48 11.5 -80.5t34.5 -52t57.5 -27.5t81.5 -8h122v-72q-24 -5 -66.5 -8.5t-90.5 -3.5q-62 0 -109 13.5t-78.5 42.5t-48 74t-16.5 109v758h-141v78z" />
    <glyph glyph-name="u" unicode="u" horiz-adv-x="1124" 
d="M870 156q-44 -34 -95.5 -64.5t-108.5 -53.5t-117.5 -36.5t-122.5 -13.5t-114.5 14t-91.5 46t-61 85.5t-22 132.5v801h105v-791q0 -61 15 -100.5t42 -62.5t63 -32t78 -9q61 0 119 14t112 38t104 54.5t95 63.5v825h103v-1067h-47q-17 0 -28 4t-17 16t-8.5 34.5t-2.5 60.5
v41z" />
    <glyph glyph-name="v" unicode="v" horiz-adv-x="1018" 
d="M53 1030v37h92l367 -928h4l365 928h84v-37l-406 -1030h-96z" />
    <glyph glyph-name="w" unicode="w" horiz-adv-x="1481" 
d="M57 1028v39h93l268 -911h4l283 911h86l276 -911h4l268 911h84v-39l-309 -1028h-90l-279 903h-4l-280 -903h-94z" />
    <glyph glyph-name="x" unicode="x" horiz-adv-x="981" 
d="M57 41l357 514l-342 473v39h92l323 -446l304 446h83v-39l-321 -471l373 -516v-41h-92l-353 492l-340 -492h-84v41z" />
    <glyph glyph-name="y" unicode="y" horiz-adv-x="1032" 
d="M315 -299l162 373l-426 962v31h94l381 -872h2l361 872h92v-31l-575 -1368h-91v33z" />
    <glyph glyph-name="z" unicode="z" horiz-adv-x="938" 
d="M70 80l708 907h-665v80h780v-82l-709 -905h697v-80h-811v80z" />
    <glyph glyph-name="braceleft" unicode="{" horiz-adv-x="627" 
d="M233 563q0 57 -31 89t-98 32h-57v82h57q67 0 98 32t31 89v397q0 119 60 176.5t178 57.5h109v-82h-99q-75 0 -109 -38.5t-34 -113.5v-393q0 -75 -34.5 -112.5t-90.5 -51.5v-2q56 -14 90.5 -53t34.5 -113v-424q0 -74 34 -113.5t109 -39.5h99v-82h-109q-118 0 -178 58
t-60 179v426z" />
    <glyph glyph-name="bar" unicode="|" horiz-adv-x="420" 
d="M254 -100h-88v1618h88v-1618z" />
    <glyph glyph-name="braceright" unicode="}" horiz-adv-x="627" 
d="M393 137q0 -121 -60 -179t-175 -58h-109v82h96q76 0 110 39.5t34 113.5v424q0 74 34.5 113t90.5 53v2q-56 14 -90.5 51.5t-34.5 112.5v393q0 75 -34 113.5t-110 38.5h-96v82h109q115 0 175 -57.5t60 -176.5v-397q0 -57 31.5 -89t99.5 -32h56v-82h-56q-68 0 -99.5 -32
t-31.5 -89v-426z" />
    <glyph glyph-name="asciitilde" unicode="~" horiz-adv-x="672" 
d="M53 526q6 31 18.5 58t32 47t45 31.5t56.5 11.5q36 0 71 -13t68 -28t62.5 -28t54.5 -13q34 0 53 23t27 69h77v-39q-12 -63 -51 -105t-104 -42q-34 0 -68.5 13t-67 28t-62.5 28t-54 13q-68 0 -80 -95h-78v41z" />
    <glyph glyph-name="uni00A0" unicode="&#xa0;" horiz-adv-x="614" 
 />
    <glyph glyph-name="exclamdown" unicode="&#xa1;" horiz-adv-x="465" 
d="M287 -80v-76h-111v76l12 1063h86zM233 1286q35 0 56.5 -22t21.5 -54q0 -34 -21.5 -57t-56.5 -23q-34 0 -56.5 23t-22.5 57q0 32 22.5 54t56.5 22z" />
    <glyph glyph-name="cent" unicode="&#xa2;" 
d="M1049 117q-21 -20 -51 -41t-69.5 -38t-89 -29t-108.5 -15v-203h-86v203q-108 7 -192.5 47.5t-143.5 110.5t-90 167.5t-31 217.5t33.5 216.5t94 166t144.5 109.5t185 48v121h86v-121q57 -2 103 -11.5t82 -23.5t63.5 -31t48.5 -34v-82h-53q-17 17 -39.5 33.5t-52 30.5
t-67 23.5t-85.5 12.5v-921q54 4 96 16t75 29.5t57 37.5t42 40h48v-80zM293 537q0 -103 23.5 -185t68.5 -141t110.5 -93.5t149.5 -41.5v919q-80 -8 -145 -42.5t-111 -93t-71 -140t-25 -182.5z" />
    <glyph glyph-name="sterling" unicode="&#xa3;" 
d="M152 88q39 23 71.5 52.5t56.5 66t37 81.5t13 99q0 72 -9.5 141t-21.5 136h-139v81h123q-17 84 -31 160.5t-14 151.5q0 86 28.5 157t83 121.5t135 78.5t185.5 28q121 0 209.5 -35t156.5 -94v-80h-55q-27 26 -58.5 48t-69 37.5t-82.5 24.5t-99 9q-85 0 -146.5 -20.5
t-101.5 -59t-59 -93t-19 -122.5q0 -75 13 -151.5t30 -160.5h418v-81h-404q13 -67 21 -135t8 -142q0 -54 -11 -97t-30.5 -78.5t-46 -65t-57.5 -54.5h772v-92h-907v88z" />
    <glyph glyph-name="yen" unicode="&#xa5;" 
d="M215 700h324l-398 689v45h95l387 -676h2l381 676h84v-45l-394 -689h326v-79h-348v-138h348v-82h-348v-401h-111v401h-348v82h348v138h-348v79z" />
    <glyph glyph-name="brokenbar" unicode="&#xa6;" horiz-adv-x="281" 
d="M94 637h92l-2 -737h-90v737zM94 1518h90l2 -732h-92v732z" />
    <glyph glyph-name="section" unicode="&#xa7;" horiz-adv-x="1038" 
d="M61 602q0 116 72.5 184.5t206.5 96.5q-82 42 -121 104.5t-39 159.5q0 65 25 119.5t72 93.5t114 60.5t152 21.5q114 0 193 -25.5t122 -56.5v-84h-43q-40 34 -105 60t-165 26q-65 0 -115 -15.5t-84 -43.5t-52 -67t-18 -85q0 -48 16.5 -85.5t51.5 -67t91 -52t134 -41.5
q85 -21 159 -48t129.5 -66t87.5 -92.5t32 -127.5q0 -114 -68 -189.5t-196 -107.5q35 -18 63 -39t47 -49t29 -64t10 -83q0 -146 -95.5 -226.5t-285.5 -80.5q-69 0 -123.5 9.5t-96.5 24t-74 32t-56 34.5v84h41q18 -18 46 -36.5t66 -33.5t86.5 -24.5t108.5 -9.5
q140 0 211.5 53.5t71.5 165.5q0 53 -18.5 88.5t-59 62t-103.5 48t-151 46.5q-87 25 -156 54t-116 67t-72 88t-25 117zM596 322q65 7 117 25t88.5 48t56 71t19.5 93t-22 92t-64 70.5t-104 53t-142 40.5l-74 19q-163 -13 -236 -69t-73 -147q0 -48 16.5 -85.5t52 -67.5t92 -55
t136.5 -48z" />
    <glyph glyph-name="dieresis" unicode="&#xa8;" horiz-adv-x="848" 
d="M276 1231q-29 0 -49 20t-20 47q0 29 20 49.5t49 20.5t49.5 -20.5t20.5 -49.5q0 -27 -20.5 -47t-49.5 -20zM569 1231q-28 0 -47.5 20t-19.5 47q0 29 19.5 49.5t47.5 20.5q29 0 49.5 -20.5t20.5 -49.5q0 -27 -20.5 -47t-49.5 -20z" />
    <glyph glyph-name="copyright" unicode="&#xa9;" horiz-adv-x="1626" 
d="M813 -12q-97 0 -189 21.5t-172.5 63t-148 103.5t-115.5 143t-75 180.5t-27 217.5t27 217.5t75 180.5t115.5 143t148 103.5t172.5 63t189 21.5t189 -21.5t172.5 -63t148 -103.5t115.5 -143t75 -180.5t27 -217.5t-27 -217.5t-75 -180.5t-115.5 -143t-148 -103.5t-172.5 -63
t-189 -21.5zM813 63q132 0 248.5 43t204 126.5t138 205t50.5 279.5q0 157 -50.5 279.5t-138 205.5t-204 126.5t-248.5 43.5t-248.5 -43.5t-203 -126.5t-137 -205.5t-50.5 -279.5q0 -158 50.5 -279.5t137 -205t203 -126.5t248.5 -43zM829 319q-91 0 -162.5 28t-121 80
t-75.5 126t-26 166t29 165.5t80.5 125t123 79t157.5 27.5q52 0 92.5 -7t71.5 -17.5t54 -24t40 -25.5v-81h-56q-26 32 -72 52.5t-130 20.5q-62 0 -114 -20.5t-89.5 -60.5t-58.5 -99t-21 -135q0 -158 74 -237t209 -79q44 0 78.5 8t61 21t45 29t30.5 31h49v-78
q-17 -16 -41.5 -33t-58 -30.5t-75.5 -22.5t-94 -9z" />
    <glyph glyph-name="ordfeminine" unicode="&#xaa;" horiz-adv-x="864" 
d="M653 651q-57 -63 -130 -97t-175 -34q-64 0 -117.5 15.5t-92.5 47.5t-61 81t-22 116q0 69 27 119.5t75 84.5t114.5 50.5t146.5 16.5q65 0 122.5 -7.5t112.5 -21.5v149q0 56 -14.5 93t-42.5 58.5t-69 30.5t-95 9q-99 0 -168.5 -22.5t-111.5 -53.5h-37v74q54 32 135.5 57
t195.5 25q66 0 122 -12.5t96.5 -42.5t63 -80.5t22.5 -126.5v-654h-39q-34 0 -46 21.5t-12 81.5v22zM360 594q54 0 97 11t78 30t63.5 45.5t54.5 58.5v215q-52 10 -106.5 17.5t-114.5 7.5q-63 0 -114.5 -10.5t-88.5 -33.5t-57 -60t-20 -89q0 -53 15.5 -89.5t43.5 -59.5t66 -33
t83 -10z" />
    <glyph glyph-name="guillemotleft" unicode="&#xab;" horiz-adv-x="877" 
d="M63 504v55l322 410h86v-39l-305 -395v-5l305 -397v-35h-86zM406 504v55l321 410h86v-39l-305 -395v-5l305 -397v-35h-86z" />
    <glyph glyph-name="registered" unicode="&#xae;" horiz-adv-x="877" 
d="M438 717q-74 0 -141 24.5t-118.5 71.5t-82 115t-30.5 155q0 88 30.5 156t82 115t118.5 71.5t141 24.5q73 0 141 -24.5t120 -71.5t83 -115t31 -156q0 -87 -31 -155t-83 -115t-120 -71.5t-141 -24.5zM434 778q63 0 118 20t96.5 58.5t65 95.5t23.5 131q0 75 -23.5 132.5
t-65 96t-96.5 58t-118 19.5t-118 -19.5t-96.5 -58t-65 -96t-23.5 -132.5q0 -74 23.5 -131t65 -95.5t96.5 -58.5t118 -20zM446 1049h-67v-156h-80v395h154q75 0 110 -31t35 -88q0 -38 -19.5 -66t-54.5 -42l82 -135v-33h-71zM446 1104q41 0 57.5 17t16.5 48q0 28 -16 45
t-58 17h-67v-127h67z" />
    <glyph glyph-name="macron" unicode="&#xaf;" horiz-adv-x="848" 
d="M649 1251h-450v76h450v-76z" />
    <glyph glyph-name="degree" unicode="&#xb0;" horiz-adv-x="651" 
d="M326 928q-53 0 -99.5 18.5t-82 52t-56 81t-20.5 106.5q0 60 20.5 108t56 82t82 52t99.5 18t100 -18t82 -52t55.5 -82t20.5 -108q0 -59 -20.5 -106.5t-55.5 -81t-82 -52t-100 -18.5zM326 1004q37 0 68.5 13t55 37t37 57.5t13.5 74.5q0 42 -13.5 76t-37 58t-55 37t-68.5 13
q-36 0 -68 -13t-55.5 -37t-37 -58t-13.5 -76q0 -41 13.5 -74.5t37 -57.5t55.5 -37t68 -13z" />
    <glyph glyph-name="acute" unicode="&#xb4;" horiz-adv-x="848" 
d="M377 1174v32l153 228h103v-41l-193 -219h-63z" />
    <glyph glyph-name="paragraph" unicode="&#xb6;" horiz-adv-x="1122" 
d="M582 692h-33q-101 0 -188.5 17t-152 59.5t-101.5 114t-37 180.5q0 113 37.5 185t103.5 113.5t156 57t194 15.5h387v-1620h-94v1529h-178v-1529h-94v878z" />
    <glyph glyph-name="periodcentered" unicode="&#xb7;" horiz-adv-x="295" 
d="M147 561q-34 0 -55.5 22t-21.5 56q0 32 21.5 56t55.5 24q16 0 30.5 -6.5t25.5 -17.5t17.5 -25.5t6.5 -30.5q0 -34 -24 -56t-56 -22z" />
    <glyph glyph-name="cedilla" unicode="&#xb8;" horiz-adv-x="848" 
d="M420 0v-82q77 -3 119.5 -38.5t42.5 -100.5q0 -32 -13.5 -57.5t-36.5 -42.5t-54 -26t-66 -9q-50 0 -85 12t-61 29v63h43q13 -12 36 -21.5t61 -9.5t63 16t25 48q0 31 -23.5 50t-79.5 19h-47v150h76z" />
    <glyph glyph-name="ordmasculine" unicode="&#xba;" horiz-adv-x="995" 
d="M498 520q-92 0 -170.5 30.5t-136 89.5t-90.5 144.5t-33 196.5q0 109 33 194.5t90.5 145t136 90.5t170.5 31t170.5 -31t136.5 -90.5t90.5 -145t32.5 -194.5q0 -111 -32.5 -196.5t-90.5 -144.5t-136.5 -89.5t-170.5 -30.5zM498 600q74 0 135 24t104 72t66.5 119t23.5 166
q0 92 -23.5 163.5t-66.5 120t-104 74t-135 25.5q-75 0 -135.5 -25.5t-104 -74t-67 -120t-23.5 -163.5q0 -95 23.5 -166t67 -119t104 -72t135.5 -24z" />
    <glyph glyph-name="guillemotright" unicode="&#xbb;" horiz-adv-x="877" 
d="M406 133l305 397v7l-305 393v39h86l321 -410v-53l-321 -408h-86v35zM63 133l306 397v7l-306 393v39h87l321 -410v-53l-321 -408h-87v35z" />
    <glyph glyph-name="onequarter" unicode="&#xbc;" horiz-adv-x="1341" 
d="M1102 0v188h-391v78l393 498h88v-506h111v-70h-111v-188h-90zM793 258h309v383h-4l-305 -379v-4zM217 670v663l-166 -92h-28v68l223 125h67v-764h-96zM178 -70h-98l1010 1563h98z" />
    <glyph glyph-name="onehalf" unicode="&#xbd;" horiz-adv-x="1409" 
d="M1366 0h-504v78l234 213q45 42 77.5 76t53.5 64.5t31 60t10 61.5q0 66 -39.5 104.5t-116.5 38.5q-63 0 -108 -23t-76 -52h-43v61q37 34 96.5 61t140.5 27q55 0 100.5 -15t77 -43t49 -66.5t17.5 -86.5q0 -41 -14 -78.5t-40.5 -75t-65.5 -77.5t-89 -86l-180 -164h389v-78z
M217 670v663l-166 -92h-28v68l223 125h67v-764h-96zM178 -70h-98l1010 1563h98z" />
    <glyph glyph-name="threequarters" unicode="&#xbe;" horiz-adv-x="1413" 
d="M254 664q-78 0 -138 22t-96 53v64h43q26 -25 72.5 -45.5t114.5 -20.5q90 0 138 41t48 115q0 39 -15.5 65.5t-41 43t-57.5 23.5t-66 7h-76v68h70q75 0 122.5 34.5t47.5 102.5q0 63 -40.5 96t-119.5 33q-57 0 -101.5 -18t-70.5 -41h-43v61q37 28 95 50t130 22
q54 0 98 -12.5t75.5 -37t49 -61t17.5 -84.5q0 -72 -37 -112t-96 -60v-4q69 -17 110 -59.5t41 -122.5q0 -54 -19 -95.5t-55 -70t-86.5 -43t-113.5 -14.5zM1171 0v188h-391v78l394 498h88v-506h110v-70h-110v-188h-91zM862 258h309v383h-4l-305 -379v-4zM283 -70h-99
l1010 1563h98z" />
    <glyph glyph-name="questiondown" unicode="&#xbf;" horiz-adv-x="881" 
d="M584 983q11 -83 6 -143t-27 -111t-61 -99t-96 -106q-36 -37 -76.5 -74.5t-74 -81t-55.5 -94.5t-22 -114q0 -113 68 -174.5t198 -61.5q120 0 195.5 35t114.5 86h53v-86q-26 -24 -60.5 -46t-79.5 -39t-101.5 -27.5t-125.5 -10.5q-85 0 -153.5 20.5t-116.5 61t-74 102
t-26 142.5q0 71 22.5 127.5t60 105t86 94t99.5 95.5q42 40 75 78t54.5 83t29.5 102t1 136h86zM535 1286q32 0 54.5 -22t22.5 -54q0 -34 -22.5 -57t-54.5 -23q-35 0 -57.5 23t-22.5 57q0 32 22.5 54t57.5 22z" />
    <glyph glyph-name="Agrave" unicode="&#xc0;" horiz-adv-x="1253" 
d="M61 45l504 1389h129l498 -1389v-45h-96l-162 449h-621l-159 -449h-93v45zM344 539h559l-276 774h-4zM609 1481l-158 184v39h102l117 -193v-30h-61z" />
    <glyph glyph-name="Aacute" unicode="&#xc1;" horiz-adv-x="1253" 
d="M61 45l504 1389h129l498 -1389v-45h-96l-162 449h-621l-159 -449h-93v45zM344 539h559l-276 774h-4zM588 1511l121 193h98v-39l-156 -184h-63v30z" />
    <glyph glyph-name="Acircumflex" unicode="&#xc2;" horiz-adv-x="1253" 
d="M61 45l504 1389h129l498 -1389v-45h-96l-162 449h-621l-159 -449h-93v45zM344 539h559l-276 774h-4zM406 1518l182 188h82l178 -188v-37h-61l-162 143l-160 -143h-59v37z" />
    <glyph glyph-name="Atilde" unicode="&#xc3;" horiz-adv-x="1253" 
d="M61 45l504 1389h129l498 -1389v-45h-96l-162 449h-621l-159 -449h-93v45zM344 539h559l-276 774h-4zM367 1538q5 27 17.5 51t31.5 42.5t44 29t56 10.5q34 0 63.5 -13t56.5 -28t51 -28t46 -13q35 0 56.5 24.5t27.5 61.5h70v-37q-6 -28 -18.5 -52.5t-31 -42.5t-43 -28
t-55.5 -10q-35 0 -65 12.5t-56.5 27.5t-50 27.5t-45.5 12.5q-35 0 -57 -23t-29 -63h-69v39z" />
    <glyph glyph-name="Adieresis" unicode="&#xc4;" horiz-adv-x="1253" 
d="M61 45l504 1389h129l498 -1389v-45h-96l-162 449h-621l-159 -449h-93v45zM344 539h559l-276 774h-4zM481 1501q-29 0 -49 20.5t-20 49.5q0 28 20 48.5t49 20.5t49.5 -20.5t20.5 -48.5q0 -29 -20.5 -49.5t-49.5 -20.5zM774 1501q-28 0 -47.5 20.5t-19.5 49.5
q0 28 19.5 48.5t47.5 20.5q29 0 49.5 -20.5t20.5 -48.5q0 -29 -20.5 -49.5t-49.5 -20.5z" />
    <glyph glyph-name="Aring" unicode="&#xc5;" horiz-adv-x="1253" 
d="M61 45l504 1389h129l498 -1389v-45h-96l-162 449h-621l-159 -449h-93v45zM344 539h559l-276 774h-4zM629 1489q-35 0 -67.5 12t-57.5 34.5t-40 54.5t-15 73q0 40 15 72.5t40 55.5t57.5 35.5t67.5 12.5q34 0 66.5 -12.5t57 -35.5t39.5 -55.5t15 -72.5q0 -41 -15 -73
t-39.5 -54.5t-57 -34.5t-66.5 -12zM629 1556q43 0 73.5 28.5t30.5 78.5q0 24 -8 44t-22.5 34.5t-33.5 22.5t-40 8q-45 0 -75 -30.5t-30 -78.5q0 -50 30 -78.5t75 -28.5z" />
    <glyph glyph-name="AE" unicode="&#xc6;" horiz-adv-x="1888" 
d="M934 451h-574l-235 -451h-88v45l735 1389h1018v-93h-746v-557h562v-90h-562v-604h775v-90h-885v451zM408 541h526v800h-105z" />
    <glyph glyph-name="Ccedilla" unicode="&#xc7;" horiz-adv-x="1262" 
d="M702 -8v-74q78 -3 120 -38.5t42 -100.5q0 -32 -13.5 -57.5t-36.5 -42.5t-54 -26t-66 -9q-49 0 -84 12t-61 29v63h43q12 -12 35.5 -21.5t60.5 -9.5q38 0 63 16t25 48q0 31 -23 50t-79 19h-47v148q-119 15 -216 69t-167 145.5t-108 219t-38 289.5q0 177 50.5 311.5
t136.5 225.5t201 137.5t243 46.5q85 0 149 -10.5t114.5 -29.5t91.5 -45.5t81 -58.5v-88h-51q-30 30 -65 56t-80 45.5t-102 31t-132 11.5q-111 0 -207 -40t-166.5 -119t-110.5 -197t-40 -273q0 -158 36 -278.5t102 -202t160 -123t210 -41.5q81 0 145 14t115 37.5t91 54
t73 64.5h47v-82q-37 -35 -82.5 -66.5t-103.5 -56t-129 -39t-158 -14.5h-15z" />
    <glyph glyph-name="Egrave" unicode="&#xc8;" horiz-adv-x="1128" 
d="M176 1434h854v-93h-745v-557h563v-90h-563v-604h774v-90h-883v1434zM600 1481l-158 184v39h102l117 -193v-30h-61z" />
    <glyph glyph-name="Eacute" unicode="&#xc9;" horiz-adv-x="1128" 
d="M176 1434h854v-93h-745v-557h563v-90h-563v-604h774v-90h-883v1434zM580 1511l121 193h98v-39l-156 -184h-63v30z" />
    <glyph glyph-name="Ecircumflex" unicode="&#xca;" horiz-adv-x="1128" 
d="M176 1434h854v-93h-745v-557h563v-90h-563v-604h774v-90h-883v1434zM396 1518l182 188h82l178 -188v-37h-61l-162 143l-160 -143h-59v37z" />
    <glyph glyph-name="Edieresis" unicode="&#xcb;" horiz-adv-x="1128" 
d="M176 1434h854v-93h-745v-557h563v-90h-563v-604h774v-90h-883v1434zM471 1501q-29 0 -49 20.5t-20 49.5q0 28 20 48.5t49 20.5t49.5 -20.5t20.5 -48.5q0 -29 -20.5 -49.5t-49.5 -20.5zM764 1501q-28 0 -47.5 20.5t-19.5 49.5q0 28 19.5 48.5t47.5 20.5q29 0 49.5 -20.5
t20.5 -48.5q0 -29 -20.5 -49.5t-49.5 -20.5z" />
    <glyph glyph-name="Igrave" unicode="&#xcc;" horiz-adv-x="471" 
d="M180 0v1434h111v-1434h-111zM218 1481l-158 184v39h102l117 -193v-30h-61z" />
    <glyph glyph-name="Iacute" unicode="&#xcd;" horiz-adv-x="471" 
d="M180 0v1434h111v-1434h-111zM198 1511l121 193h98v-39l-156 -184h-63v30z" />
    <glyph glyph-name="Icircumflex" unicode="&#xce;" horiz-adv-x="471" 
d="M180 0v1434h111v-1434h-111zM16 1518l182 188h82l178 -188v-37h-61l-162 143l-160 -143h-59v37z" />
    <glyph glyph-name="Idieresis" unicode="&#xcf;" horiz-adv-x="471" 
d="M180 0v1434h111v-1434h-111zM91 1501q-29 0 -49 20.5t-20 49.5q0 28 20 48.5t49 20.5t49.5 -20.5t20.5 -48.5q0 -29 -20.5 -49.5t-49.5 -20.5zM384 1501q-28 0 -47.5 20.5t-19.5 49.5q0 28 19.5 48.5t47.5 20.5q29 0 49.5 -20.5t20.5 -48.5q0 -29 -20.5 -49.5
t-49.5 -20.5z" />
    <glyph glyph-name="Eth" unicode="&#xd0;" horiz-adv-x="1366" 
d="M27 764h149v670h383q177 0 312 -40t226 -126.5t137 -222t46 -326.5t-46 -327t-137 -223t-226.5 -128t-313.5 -41h-381v674h-149v90zM557 90q155 0 270 34.5t190.5 109.5t112.5 194t37 289q0 169 -37 288t-112.5 194t-190.5 109.5t-270 34.5h-272v-579h434v-90h-434v-584
h272z" />
    <glyph glyph-name="Ntilde" unicode="&#xd1;" horiz-adv-x="1389" 
d="M176 1434h135l797 -1237h2v1237h104v-1434h-104l-827 1288h-4v-1288h-103v1434zM455 1538q5 27 17.5 51t31.5 42.5t44 29t56 10.5q34 0 63.5 -13t56.5 -28t51 -28t46 -13q35 0 56.5 24.5t27.5 61.5h70v-37q-6 -28 -18.5 -52.5t-31 -42.5t-43 -28t-55.5 -10
q-35 0 -65 12.5t-56.5 27.5t-50 27.5t-45.5 12.5q-35 0 -57 -23t-29 -63h-69v39z" />
    <glyph glyph-name="Ograve" unicode="&#xd2;" horiz-adv-x="1458" 
d="M731 -8q-132 0 -249.5 47t-205 139t-139 227t-51.5 312q0 176 51.5 311t139 227t205 139.5t249.5 47.5q87 0 168.5 -21t152.5 -62.5t130 -103t101 -142t65.5 -180t23.5 -216.5q0 -118 -23.5 -217.5t-65.5 -180t-101 -141.5t-130 -102.5t-152.5 -62.5t-168.5 -21zM731 78
q111 0 208 40.5t168 120.5t112 199t41 277q0 157 -41 277t-112 201t-168 122t-208 41q-113 0 -210 -41t-168.5 -122t-112.5 -201t-41 -277q0 -158 41 -277t112.5 -199t168.5 -120.5t210 -40.5zM709 1481l-158 184v39h102l117 -193v-30h-61z" />
    <glyph glyph-name="Oacute" unicode="&#xd3;" horiz-adv-x="1458" 
d="M731 -8q-132 0 -249.5 47t-205 139t-139 227t-51.5 312q0 176 51.5 311t139 227t205 139.5t249.5 47.5q87 0 168.5 -21t152.5 -62.5t130 -103t101 -142t65.5 -180t23.5 -216.5q0 -118 -23.5 -217.5t-65.5 -180t-101 -141.5t-130 -102.5t-152.5 -62.5t-168.5 -21zM731 78
q111 0 208 40.5t168 120.5t112 199t41 277q0 157 -41 277t-112 201t-168 122t-208 41q-113 0 -210 -41t-168.5 -122t-112.5 -201t-41 -277q0 -158 41 -277t112.5 -199t168.5 -120.5t210 -40.5zM688 1511l121 193h98v-39l-156 -184h-63v30z" />
    <glyph glyph-name="Ocircumflex" unicode="&#xd4;" horiz-adv-x="1458" 
d="M731 -8q-132 0 -249.5 47t-205 139t-139 227t-51.5 312q0 176 51.5 311t139 227t205 139.5t249.5 47.5q87 0 168.5 -21t152.5 -62.5t130 -103t101 -142t65.5 -180t23.5 -216.5q0 -118 -23.5 -217.5t-65.5 -180t-101 -141.5t-130 -102.5t-152.5 -62.5t-168.5 -21zM731 78
q111 0 208 40.5t168 120.5t112 199t41 277q0 157 -41 277t-112 201t-168 122t-208 41q-113 0 -210 -41t-168.5 -122t-112.5 -201t-41 -277q0 -158 41 -277t112.5 -199t168.5 -120.5t210 -40.5zM506 1518l182 188h82l178 -188v-37h-61l-162 143l-160 -143h-59v37z" />
    <glyph glyph-name="Otilde" unicode="&#xd5;" horiz-adv-x="1458" 
d="M731 -8q-132 0 -249.5 47t-205 139t-139 227t-51.5 312q0 176 51.5 311t139 227t205 139.5t249.5 47.5q87 0 168.5 -21t152.5 -62.5t130 -103t101 -142t65.5 -180t23.5 -216.5q0 -118 -23.5 -217.5t-65.5 -180t-101 -141.5t-130 -102.5t-152.5 -62.5t-168.5 -21zM731 78
q111 0 208 40.5t168 120.5t112 199t41 277q0 157 -41 277t-112 201t-168 122t-208 41q-113 0 -210 -41t-168.5 -122t-112.5 -201t-41 -277q0 -158 41 -277t112.5 -199t168.5 -120.5t210 -40.5zM467 1538q5 27 17.5 51t31.5 42.5t44 29t56 10.5q34 0 63.5 -13t56.5 -28
t51 -28t46 -13q35 0 56.5 24.5t27.5 61.5h70v-37q-6 -28 -18.5 -52.5t-31 -42.5t-43 -28t-55.5 -10q-35 0 -65 12.5t-56.5 27.5t-50 27.5t-45.5 12.5q-35 0 -57 -23t-29 -63h-69v39z" />
    <glyph glyph-name="Odieresis" unicode="&#xd6;" horiz-adv-x="1458" 
d="M731 -8q-132 0 -249.5 47t-205 139t-139 227t-51.5 312q0 176 51.5 311t139 227t205 139.5t249.5 47.5q87 0 168.5 -21t152.5 -62.5t130 -103t101 -142t65.5 -180t23.5 -216.5q0 -118 -23.5 -217.5t-65.5 -180t-101 -141.5t-130 -102.5t-152.5 -62.5t-168.5 -21zM731 78
q111 0 208 40.5t168 120.5t112 199t41 277q0 157 -41 277t-112 201t-168 122t-208 41q-113 0 -210 -41t-168.5 -122t-112.5 -201t-41 -277q0 -158 41 -277t112.5 -199t168.5 -120.5t210 -40.5zM581 1501q-29 0 -49 20.5t-20 49.5q0 28 20 48.5t49 20.5t49.5 -20.5
t20.5 -48.5q0 -29 -20.5 -49.5t-49.5 -20.5zM874 1501q-28 0 -47.5 20.5t-19.5 49.5q0 28 19.5 48.5t47.5 20.5q29 0 49.5 -20.5t20.5 -48.5q0 -29 -20.5 -49.5t-49.5 -20.5z" />
    <glyph glyph-name="multiply" unicode="&#xd7;" 
d="M614 625l-313 -316l-61 68l313 315l-313 318l61 67l313 -315l314 315l63 -67l-315 -318l315 -315l-63 -68z" />
    <glyph glyph-name="Oslash" unicode="&#xd8;" horiz-adv-x="1458" 
d="M731 -8q-111 0 -211.5 33t-181.5 98l-135 -178h-80v32l151 201q-88 93 -138 227t-50 312q0 176 51.5 311t139 227t205 139.5t249.5 47.5q112 0 213 -34.5t184 -102.5l127 168h80v-33l-145 -193q85 -93 133.5 -225t48.5 -305q0 -118 -23.5 -217.5t-65.5 -180t-101 -141.5
t-130 -102.5t-152.5 -62.5t-168.5 -21zM199 715q0 -150 35 -264.5t100 -194.5l737 973q-68 63 -154.5 95t-185.5 32q-113 0 -210 -41t-168.5 -122t-112.5 -201t-41 -277zM731 78q111 0 208 40.5t168 120.5t112 199t41 277q0 146 -35 259t-97 193l-735 -972q68 -59 153.5 -88
t184.5 -29z" />
    <glyph glyph-name="Ugrave" unicode="&#xd9;" horiz-adv-x="1380" 
d="M702 82q85 0 159.5 18.5t130 64t88 122.5t32.5 194v953h105v-949q0 -135 -39.5 -229t-109.5 -152.5t-165.5 -85t-206.5 -26.5q-110 0 -206.5 26t-168.5 84.5t-113.5 152.5t-41.5 230v949h108v-953q0 -115 34 -192t92.5 -123t136.5 -65t165 -19zM672 1481l-158 184v39h102
l117 -193v-30h-61z" />
    <glyph glyph-name="Uacute" unicode="&#xda;" horiz-adv-x="1380" 
d="M702 82q85 0 159.5 18.5t130 64t88 122.5t32.5 194v953h105v-949q0 -135 -39.5 -229t-109.5 -152.5t-165.5 -85t-206.5 -26.5q-110 0 -206.5 26t-168.5 84.5t-113.5 152.5t-41.5 230v949h108v-953q0 -115 34 -192t92.5 -123t136.5 -65t165 -19zM653 1511l121 193h98v-39
l-156 -184h-63v30z" />
    <glyph glyph-name="Ucircumflex" unicode="&#xdb;" horiz-adv-x="1380" 
d="M702 82q85 0 159.5 18.5t130 64t88 122.5t32.5 194v953h105v-949q0 -135 -39.5 -229t-109.5 -152.5t-165.5 -85t-206.5 -26.5q-110 0 -206.5 26t-168.5 84.5t-113.5 152.5t-41.5 230v949h108v-953q0 -115 34 -192t92.5 -123t136.5 -65t165 -19zM469 1518l182 188h82
l178 -188v-37h-61l-162 143l-160 -143h-59v37z" />
    <glyph glyph-name="Udieresis" unicode="&#xdc;" horiz-adv-x="1380" 
d="M702 82q85 0 159.5 18.5t130 64t88 122.5t32.5 194v953h105v-949q0 -135 -39.5 -229t-109.5 -152.5t-165.5 -85t-206.5 -26.5q-110 0 -206.5 26t-168.5 84.5t-113.5 152.5t-41.5 230v949h108v-953q0 -115 34 -192t92.5 -123t136.5 -65t165 -19zM544 1501q-29 0 -49 20.5
t-20 49.5q0 28 20 48.5t49 20.5t49.5 -20.5t20.5 -48.5q0 -29 -20.5 -49.5t-49.5 -20.5zM837 1501q-28 0 -47.5 20.5t-19.5 49.5q0 28 19.5 48.5t47.5 20.5q29 0 49.5 -20.5t20.5 -48.5q0 -29 -20.5 -49.5t-49.5 -20.5z" />
    <glyph glyph-name="Yacute" unicode="&#xdd;" horiz-adv-x="1126" 
d="M510 0v600l-457 789v45h94l420 -732h2l420 732h86v-45l-454 -785v-604h-111zM529 1511l121 193h98v-39l-156 -184h-63v30z" />
    <glyph glyph-name="Thorn" unicode="&#xde;" horiz-adv-x="1130" 
d="M176 1434h109v-293h264q115 0 209 -20.5t160.5 -68t102.5 -124t36 -187.5q0 -113 -35 -191.5t-101 -127t-160.5 -70.5t-213.5 -22h-262v-330h-109v1434zM285 418h262q97 0 171.5 16t125 53.5t76.5 99t26 152.5t-28 150.5t-79.5 95t-125.5 50t-166 14.5h-262v-631z" />
    <glyph glyph-name="germandbls" unicode="&#xdf;" horiz-adv-x="1159" 
d="M147 1014q0 107 33.5 187.5t94.5 134.5t145.5 81t185.5 27q75 0 141 -14t115 -44t77 -77.5t28 -114.5q0 -46 -19.5 -86.5t-51.5 -77.5t-73 -70.5t-84 -64.5q-35 -25 -60 -45.5t-41 -39.5t-24 -37.5t-8 -39.5q0 -22 10 -40t33.5 -34.5t61 -33.5t92.5 -37q61 -23 114 -48
t92 -58.5t61 -80.5t22 -114q0 -72 -25.5 -127t-72.5 -92.5t-112.5 -56.5t-146.5 -19q-97 0 -164.5 23.5t-109.5 54.5v75h41q37 -29 93.5 -51t139.5 -22q124 0 191 51.5t67 155.5q0 48 -16 81t-47 58.5t-75 45t-101 40.5q-58 21 -103 42t-76 45.5t-47 56t-16 73.5
q0 35 11 64.5t31.5 56t49 52t64.5 54.5q39 30 74.5 58t62.5 56.5t43 60t16 69.5q0 45 -19.5 77.5t-54 53.5t-82 31t-102.5 10q-84 0 -150 -23.5t-111.5 -69t-70 -111.5t-24.5 -150v-1010h-103v1014z" />
    <glyph glyph-name="agrave" unicode="&#xe0;" horiz-adv-x="1010" 
d="M768 145q-34 -35 -70 -64t-79.5 -49t-96.5 -31t-119 -11q-74 0 -137 20t-109 59t-72 97t-26 133q0 81 32 140t89 97.5t135.5 57t171.5 18.5q78 0 146.5 -7.5t134.5 -24.5v192q0 62 -19 105t-53.5 69.5t-83 38.5t-106.5 12q-119 0 -200 -27t-132 -67h-43v84q32 18 71 34.5
t85.5 29t102 20.5t120.5 8q81 0 147.5 -16t114 -51.5t73 -93t25.5 -140.5v-778h-28q-23 0 -37 4t-22.5 15.5t-11.5 32t-3 52.5v41zM418 70q64 0 115 13t93 36t76 55t66 70v262q-62 14 -129.5 23.5t-144.5 9.5q-71 0 -131.5 -13t-104.5 -41.5t-69 -72.5t-25 -105
q0 -64 19.5 -109t53.5 -73.5t80.5 -41.5t100.5 -13zM486 1174l-193 219v41h100l154 -228v-32h-61z" />
    <glyph glyph-name="aacute" unicode="&#xe1;" horiz-adv-x="1010" 
d="M768 145q-34 -35 -70 -64t-79.5 -49t-96.5 -31t-119 -11q-74 0 -137 20t-109 59t-72 97t-26 133q0 81 32 140t89 97.5t135.5 57t171.5 18.5q78 0 146.5 -7.5t134.5 -24.5v192q0 62 -19 105t-53.5 69.5t-83 38.5t-106.5 12q-119 0 -200 -27t-132 -67h-43v84q32 18 71 34.5
t85.5 29t102 20.5t120.5 8q81 0 147.5 -16t114 -51.5t73 -93t25.5 -140.5v-778h-28q-23 0 -37 4t-22.5 15.5t-11.5 32t-3 52.5v41zM418 70q64 0 115 13t93 36t76 55t66 70v262q-62 14 -129.5 23.5t-144.5 9.5q-71 0 -131.5 -13t-104.5 -41.5t-69 -72.5t-25 -105
q0 -64 19.5 -109t53.5 -73.5t80.5 -41.5t100.5 -13zM475 1174v32l153 228h103v-41l-193 -219h-63z" />
    <glyph glyph-name="acircumflex" unicode="&#xe2;" horiz-adv-x="1010" 
d="M768 145q-34 -35 -70 -64t-79.5 -49t-96.5 -31t-119 -11q-74 0 -137 20t-109 59t-72 97t-26 133q0 81 32 140t89 97.5t135.5 57t171.5 18.5q78 0 146.5 -7.5t134.5 -24.5v192q0 62 -19 105t-53.5 69.5t-83 38.5t-106.5 12q-119 0 -200 -27t-132 -67h-43v84q32 18 71 34.5
t85.5 29t102 20.5t120.5 8q81 0 147.5 -16t114 -51.5t73 -93t25.5 -140.5v-778h-28q-23 0 -37 4t-22.5 15.5t-11.5 32t-3 52.5v41zM418 70q64 0 115 13t93 36t76 55t66 70v262q-62 14 -129.5 23.5t-144.5 9.5q-71 0 -131.5 -13t-104.5 -41.5t-69 -72.5t-25 -105
q0 -64 19.5 -109t53.5 -73.5t80.5 -41.5t100.5 -13zM283 1212l188 222h82l184 -222v-38h-61l-168 178l-168 -178h-57v38z" />
    <glyph glyph-name="atilde" unicode="&#xe3;" horiz-adv-x="1010" 
d="M768 145q-34 -35 -70 -64t-79.5 -49t-96.5 -31t-119 -11q-74 0 -137 20t-109 59t-72 97t-26 133q0 81 32 140t89 97.5t135.5 57t171.5 18.5q78 0 146.5 -7.5t134.5 -24.5v192q0 62 -19 105t-53.5 69.5t-83 38.5t-106.5 12q-119 0 -200 -27t-132 -67h-43v84q32 18 71 34.5
t85.5 29t102 20.5t120.5 8q81 0 147.5 -16t114 -51.5t73 -93t25.5 -140.5v-778h-28q-23 0 -37 4t-22.5 15.5t-11.5 32t-3 52.5v41zM418 70q64 0 115 13t93 36t76 55t66 70v262q-62 14 -129.5 23.5t-144.5 9.5q-71 0 -131.5 -13t-104.5 -41.5t-69 -72.5t-25 -105
q0 -64 19.5 -109t53.5 -73.5t80.5 -41.5t100.5 -13zM250 1239q5 28 17.5 52t31.5 42t44 28.5t56 10.5q34 0 63.5 -12.5t56.5 -27.5t51 -27.5t46 -12.5q35 0 56.5 24t27.5 62h70v-39q-6 -27 -18.5 -51.5t-31 -42.5t-43 -28.5t-55.5 -10.5q-35 0 -65 13t-56.5 28t-50 28
t-45.5 13q-35 0 -57 -24t-29 -62h-69v37z" />
    <glyph glyph-name="adieresis" unicode="&#xe4;" horiz-adv-x="1010" 
d="M768 145q-34 -35 -70 -64t-79.5 -49t-96.5 -31t-119 -11q-74 0 -137 20t-109 59t-72 97t-26 133q0 81 32 140t89 97.5t135.5 57t171.5 18.5q78 0 146.5 -7.5t134.5 -24.5v192q0 62 -19 105t-53.5 69.5t-83 38.5t-106.5 12q-119 0 -200 -27t-132 -67h-43v84q32 18 71 34.5
t85.5 29t102 20.5t120.5 8q81 0 147.5 -16t114 -51.5t73 -93t25.5 -140.5v-778h-28q-23 0 -37 4t-22.5 15.5t-11.5 32t-3 52.5v41zM418 70q64 0 115 13t93 36t76 55t66 70v262q-62 14 -129.5 23.5t-144.5 9.5q-71 0 -131.5 -13t-104.5 -41.5t-69 -72.5t-25 -105
q0 -64 19.5 -109t53.5 -73.5t80.5 -41.5t100.5 -13zM364 1231q-29 0 -49 20t-20 47q0 29 20 49.5t49 20.5t49.5 -20.5t20.5 -49.5q0 -27 -20.5 -47t-49.5 -20zM657 1231q-28 0 -47.5 20t-19.5 47q0 29 19.5 49.5t47.5 20.5q29 0 49.5 -20.5t20.5 -49.5q0 -27 -20.5 -47
t-49.5 -20z" />
    <glyph glyph-name="aring" unicode="&#xe5;" horiz-adv-x="1010" 
d="M768 145q-34 -35 -70 -64t-79.5 -49t-96.5 -31t-119 -11q-74 0 -137 20t-109 59t-72 97t-26 133q0 81 32 140t89 97.5t135.5 57t171.5 18.5q78 0 146.5 -7.5t134.5 -24.5v192q0 62 -19 105t-53.5 69.5t-83 38.5t-106.5 12q-119 0 -200 -27t-132 -67h-43v84q32 18 71 34.5
t85.5 29t102 20.5t120.5 8q81 0 147.5 -16t114 -51.5t73 -93t25.5 -140.5v-778h-28q-23 0 -37 4t-22.5 15.5t-11.5 32t-3 52.5v41zM418 70q64 0 115 13t93 36t76 55t66 70v262q-62 14 -129.5 23.5t-144.5 9.5q-71 0 -131.5 -13t-104.5 -41.5t-69 -72.5t-25 -105
q0 -64 19.5 -109t53.5 -73.5t80.5 -41.5t100.5 -13zM512 1176q-35 0 -67.5 12t-57.5 34.5t-40 55t-15 72.5t15 72.5t40 55.5t57.5 35.5t67.5 12.5q34 0 66.5 -12.5t57 -35.5t39.5 -55.5t15 -72.5t-15 -72.5t-39.5 -55t-57 -34.5t-66.5 -12zM512 1243q43 0 73.5 29.5
t30.5 77.5q0 49 -30.5 79.5t-73.5 30.5q-45 0 -75 -30.5t-30 -79.5q0 -48 30 -77.5t75 -29.5z" />
    <glyph glyph-name="ae" unicode="&#xe6;" horiz-adv-x="1743" 
d="M406 -10q-75 0 -139 20t-110 59.5t-72 97.5t-26 134q0 78 31.5 136.5t88.5 96.5t135.5 57t172.5 19h281v162q0 62 -19 105t-53.5 69.5t-83 38.5t-106.5 12q-119 0 -200 -27t-132 -67h-43v84q32 18 71 34.5t85.5 29t102 20.5t120.5 8q68 0 126 -11.5t102 -37.5t74 -67.5
t42 -100.5q62 103 162 160t225 57q98 0 179 -29t138.5 -89.5t89 -155t31.5 -225.5q0 -14 -1 -29t-1 -19h-805v-2q0 -226 102.5 -340t303.5 -114q64 0 115.5 9t92.5 24.5t71.5 35.5t52.5 41h45v-75q-29 -23 -65.5 -44t-84 -38t-106 -27t-131.5 -10q-155 0 -263.5 60
t-168.5 171q-35 -51 -77 -94t-94.5 -74t-116.5 -48t-142 -17zM418 70q68 0 124.5 16t103.5 46t85.5 72t71.5 93q-35 103 -35 233v2h-274q-72 0 -133 -12.5t-104.5 -40t-68 -70t-24.5 -102.5q0 -64 19.5 -109t53.5 -73.5t80.5 -41.5t100.5 -13zM1241 1001q-74 0 -137 -24.5
t-111 -73t-79 -122t-40 -171.5h701q-2 107 -26 181.5t-67.5 121t-104.5 67.5t-136 21z" />
    <glyph glyph-name="ccedilla" unicode="&#xe7;" horiz-adv-x="983" 
d="M463 0q-94 15 -167.5 59t-124 113t-77 161.5t-26.5 203.5q0 126 37 226.5t104 170.5t160 107.5t204 37.5q66 0 118 -9t92.5 -23.5t70.5 -33t53 -36.5v-82h-53q-18 18 -43.5 36.5t-59.5 33t-78.5 23.5t-101.5 9q-89 0 -162.5 -31t-126 -90t-81.5 -144.5t-29 -194.5
q0 -110 27.5 -196t79 -145.5t125.5 -90.5t167 -31q62 0 111 11.5t86.5 29t64.5 39.5t46 43h47v-78q-23 -22 -55.5 -44.5t-77 -41t-101 -30t-125.5 -11.5h-16.5t-15.5 2v-76q77 -3 119 -38.5t42 -100.5q0 -32 -13 -57.5t-36 -42.5t-54 -26t-67 -9q-49 0 -84 12t-61 29v63h43
q12 -12 35.5 -21.5t60.5 -9.5q38 0 63 16t25 48q0 31 -23 50t-79 19h-47v150h4z" />
    <glyph glyph-name="egrave" unicode="&#xe8;" horiz-adv-x="1042" 
d="M172 530q0 -226 102.5 -340t303.5 -114q64 0 115.5 9t92.5 24.5t71.5 35.5t51.5 41h45v-75q-28 -23 -64.5 -44t-84 -38t-106.5 -27t-132 -10q-120 0 -213 37.5t-156.5 107.5t-96.5 169.5t-33 223.5q0 126 35.5 227.5t98.5 173t150 110t189 38.5q98 0 179 -29t138.5 -90
t89 -155.5t31.5 -224.5q0 -16 -1 -31t-1 -19h-805zM541 1001q-74 0 -137 -24.5t-111 -73.5t-79 -123t-40 -172h703q-3 107 -28 181.5t-68.5 121.5t-104.5 68.5t-135 21.5zM514 1174l-193 219v41h100l154 -228v-32h-61z" />
    <glyph glyph-name="eacute" unicode="&#xe9;" horiz-adv-x="1042" 
d="M172 530q0 -226 102.5 -340t303.5 -114q64 0 115.5 9t92.5 24.5t71.5 35.5t51.5 41h45v-75q-28 -23 -64.5 -44t-84 -38t-106.5 -27t-132 -10q-120 0 -213 37.5t-156.5 107.5t-96.5 169.5t-33 223.5q0 126 35.5 227.5t98.5 173t150 110t189 38.5q98 0 179 -29t138.5 -90
t89 -155.5t31.5 -224.5q0 -16 -1 -31t-1 -19h-805zM541 1001q-74 0 -137 -24.5t-111 -73.5t-79 -123t-40 -172h703q-3 107 -28 181.5t-68.5 121.5t-104.5 68.5t-135 21.5zM504 1174v32l153 228h103v-41l-193 -219h-63z" />
    <glyph glyph-name="ecircumflex" unicode="&#xea;" horiz-adv-x="1042" 
d="M172 530q0 -226 102.5 -340t303.5 -114q64 0 115.5 9t92.5 24.5t71.5 35.5t51.5 41h45v-75q-28 -23 -64.5 -44t-84 -38t-106.5 -27t-132 -10q-120 0 -213 37.5t-156.5 107.5t-96.5 169.5t-33 223.5q0 126 35.5 227.5t98.5 173t150 110t189 38.5q98 0 179 -29t138.5 -90
t89 -155.5t31.5 -224.5q0 -16 -1 -31t-1 -19h-805zM541 1001q-74 0 -137 -24.5t-111 -73.5t-79 -123t-40 -172h703q-3 107 -28 181.5t-68.5 121.5t-104.5 68.5t-135 21.5zM312 1212l188 222h82l184 -222v-38h-61l-168 178l-168 -178h-57v38z" />
    <glyph glyph-name="edieresis" unicode="&#xeb;" horiz-adv-x="1042" 
d="M172 530q0 -226 102.5 -340t303.5 -114q64 0 115.5 9t92.5 24.5t71.5 35.5t51.5 41h45v-75q-28 -23 -64.5 -44t-84 -38t-106.5 -27t-132 -10q-120 0 -213 37.5t-156.5 107.5t-96.5 169.5t-33 223.5q0 126 35.5 227.5t98.5 173t150 110t189 38.5q98 0 179 -29t138.5 -90
t89 -155.5t31.5 -224.5q0 -16 -1 -31t-1 -19h-805zM541 1001q-74 0 -137 -24.5t-111 -73.5t-79 -123t-40 -172h703q-3 107 -28 181.5t-68.5 121.5t-104.5 68.5t-135 21.5zM393 1231q-29 0 -49 20t-20 47q0 29 20 49.5t49 20.5t49.5 -20.5t20.5 -49.5q0 -27 -20.5 -47
t-49.5 -20zM686 1231q-28 0 -47.5 20t-19.5 47q0 29 19.5 49.5t47.5 20.5q29 0 49.5 -20.5t20.5 -49.5q0 -27 -20.5 -47t-49.5 -20z" />
    <glyph glyph-name="igrave" unicode="&#xec;" horiz-adv-x="408" 
d="M152 0v1067h32q23 0 37 -3.5t21.5 -15t9.5 -33.5t2 -59v-956h-102zM182 1174l-193 219v41h100l154 -228v-32h-61z" />
    <glyph glyph-name="iacute" unicode="&#xed;" horiz-adv-x="408" 
d="M152 0v1067h32q23 0 37 -3.5t21.5 -15t9.5 -33.5t2 -59v-956h-102zM167 1174v32l153 228h103v-41l-193 -219h-63z" />
    <glyph glyph-name="icircumflex" unicode="&#xee;" horiz-adv-x="408" 
d="M152 0v1067h32q23 0 37 -3.5t21.5 -15t9.5 -33.5t2 -59v-956h-102zM-23 1212l188 222h82l184 -222v-38h-61l-168 178l-168 -178h-57v38z" />
    <glyph glyph-name="idieresis" unicode="&#xef;" horiz-adv-x="408" 
d="M152 0v1067h32q23 0 37 -3.5t21.5 -15t9.5 -33.5t2 -59v-956h-102zM58 1231q-29 0 -49 20t-20 47q0 29 20 49.5t49 20.5t49.5 -20.5t20.5 -49.5q0 -27 -20.5 -47t-49.5 -20zM351 1231q-28 0 -47.5 20t-19.5 47q0 29 19.5 49.5t47.5 20.5q29 0 49.5 -20.5t20.5 -49.5
q0 -27 -20.5 -47t-49.5 -20z" />
    <glyph glyph-name="eth" unicode="&#xf0;" horiz-adv-x="1126" 
d="M383 1157l182 129q-96 49 -215 74v74h43q66 -16 128.5 -39.5t121.5 -55.5l131 95h76v-31l-143 -100q80 -55 145 -128.5t111.5 -166.5t72 -205.5t25.5 -245.5q0 -141 -37 -247t-103.5 -176.5t-158 -106t-199.5 -35.5q-111 0 -202.5 38t-156.5 108t-100.5 170t-35.5 224
t35 224.5t98.5 171.5t152 109t195.5 38q67 0 120.5 -11t98 -34t81.5 -58t73 -83q-51 119 -126.5 209t-166.5 149l-170 -119h-76v29zM567 72q91 0 163.5 31.5t122.5 92.5t76.5 149t26.5 202q0 100 -26 182.5t-76 142t-122.5 92.5t-164.5 33q-93 0 -166.5 -32.5t-124 -92.5
t-77.5 -146t-27 -194q0 -106 26.5 -191t77 -145t124 -92t167.5 -32z" />
    <glyph glyph-name="ntilde" unicode="&#xf1;" horiz-adv-x="1133" 
d="M250 897q45 36 97.5 69t111.5 58t124 40t136 15q56 0 106 -13t88 -45.5t60 -87t22 -138.5v-795h-102v782q0 64 -16.5 105t-45 64.5t-67.5 32.5t-84 9q-59 0 -116.5 -15t-112 -40.5t-105.5 -58t-96 -66.5v-813h-103v1067h48q17 0 27.5 -3.5t16.5 -14.5t8.5 -32t2.5 -56
v-64zM318 1239q5 28 17.5 52t31.5 42t44 28.5t56 10.5q34 0 63.5 -12.5t56.5 -27.5t51 -27.5t46 -12.5q35 0 56.5 24t27.5 62h70v-39q-6 -27 -18.5 -51.5t-31 -42.5t-43 -28.5t-55.5 -10.5q-35 0 -65 13t-56.5 28t-50 28t-45.5 13q-35 0 -57 -24t-29 -62h-69v37z" />
    <glyph glyph-name="ograve" unicode="&#xf2;" horiz-adv-x="1128" 
d="M563 -8q-111 0 -202 37.5t-156 107.5t-101 170.5t-36 227.5q0 126 36 226.5t101 171t156 108.5t202 38q112 0 204 -38t157 -108.5t101 -171t36 -226.5q0 -127 -36 -227.5t-101 -170.5t-157 -107.5t-204 -37.5zM563 72q91 0 164 31t124 90.5t78 145.5t27 196
q0 109 -27 195t-78 146t-124 91.5t-164 31.5q-90 0 -162.5 -31.5t-123.5 -91.5t-78 -146t-27 -195q0 -110 27 -196t78 -145.5t123.5 -90.5t162.5 -31zM537 1174l-193 219v41h100l154 -228v-32h-61z" />
    <glyph glyph-name="oacute" unicode="&#xf3;" horiz-adv-x="1128" 
d="M563 -8q-111 0 -202 37.5t-156 107.5t-101 170.5t-36 227.5q0 126 36 226.5t101 171t156 108.5t202 38q112 0 204 -38t157 -108.5t101 -171t36 -226.5q0 -127 -36 -227.5t-101 -170.5t-157 -107.5t-204 -37.5zM563 72q91 0 164 31t124 90.5t78 145.5t27 196
q0 109 -27 195t-78 146t-124 91.5t-164 31.5q-90 0 -162.5 -31.5t-123.5 -91.5t-78 -146t-27 -195q0 -110 27 -196t78 -145.5t123.5 -90.5t162.5 -31zM527 1174v32l153 228h103v-41l-193 -219h-63z" />
    <glyph glyph-name="ocircumflex" unicode="&#xf4;" horiz-adv-x="1128" 
d="M563 -8q-111 0 -202 37.5t-156 107.5t-101 170.5t-36 227.5q0 126 36 226.5t101 171t156 108.5t202 38q112 0 204 -38t157 -108.5t101 -171t36 -226.5q0 -127 -36 -227.5t-101 -170.5t-157 -107.5t-204 -37.5zM563 72q91 0 164 31t124 90.5t78 145.5t27 196
q0 109 -27 195t-78 146t-124 91.5t-164 31.5q-90 0 -162.5 -31.5t-123.5 -91.5t-78 -146t-27 -195q0 -110 27 -196t78 -145.5t123.5 -90.5t162.5 -31zM334 1212l188 222h82l184 -222v-38h-61l-168 178l-168 -178h-57v38z" />
    <glyph glyph-name="otilde" unicode="&#xf5;" horiz-adv-x="1128" 
d="M563 -8q-111 0 -202 37.5t-156 107.5t-101 170.5t-36 227.5q0 126 36 226.5t101 171t156 108.5t202 38q112 0 204 -38t157 -108.5t101 -171t36 -226.5q0 -127 -36 -227.5t-101 -170.5t-157 -107.5t-204 -37.5zM563 72q91 0 164 31t124 90.5t78 145.5t27 196
q0 109 -27 195t-78 146t-124 91.5t-164 31.5q-90 0 -162.5 -31.5t-123.5 -91.5t-78 -146t-27 -195q0 -110 27 -196t78 -145.5t123.5 -90.5t162.5 -31zM303 1239q5 28 17.5 52t31.5 42t44 28.5t56 10.5q34 0 63.5 -12.5t56.5 -27.5t51 -27.5t46 -12.5q35 0 56.5 24t27.5 62
h70v-39q-6 -27 -18.5 -51.5t-31 -42.5t-43 -28.5t-55.5 -10.5q-35 0 -65 13t-56.5 28t-50 28t-45.5 13q-35 0 -57 -24t-29 -62h-69v37z" />
    <glyph glyph-name="odieresis" unicode="&#xf6;" horiz-adv-x="1128" 
d="M563 -8q-111 0 -202 37.5t-156 107.5t-101 170.5t-36 227.5q0 126 36 226.5t101 171t156 108.5t202 38q112 0 204 -38t157 -108.5t101 -171t36 -226.5q0 -127 -36 -227.5t-101 -170.5t-157 -107.5t-204 -37.5zM563 72q91 0 164 31t124 90.5t78 145.5t27 196
q0 109 -27 195t-78 146t-124 91.5t-164 31.5q-90 0 -162.5 -31.5t-123.5 -91.5t-78 -146t-27 -195q0 -110 27 -196t78 -145.5t123.5 -90.5t162.5 -31zM415 1231q-29 0 -49 20t-20 47q0 29 20 49.5t49 20.5t49.5 -20.5t20.5 -49.5q0 -27 -20.5 -47t-49.5 -20zM708 1231
q-28 0 -47.5 20t-19.5 47q0 29 19.5 49.5t47.5 20.5q29 0 49.5 -20.5t20.5 -49.5q0 -27 -20.5 -47t-49.5 -20z" />
    <glyph glyph-name="divide" unicode="&#xf7;" 
d="M207 662v92h819v-92h-819zM616 483q35 0 57.5 -22.5t22.5 -57.5q0 -34 -22.5 -55.5t-57.5 -21.5q-32 0 -54.5 21.5t-22.5 55.5q0 35 22.5 57.5t54.5 22.5zM616 1090q35 0 57.5 -23t22.5 -57q0 -32 -22.5 -55t-57.5 -23q-32 0 -54.5 23t-22.5 55q0 34 22.5 57t54.5 23z
" />
    <glyph glyph-name="oslash" unicode="&#xf8;" horiz-adv-x="1128" 
d="M563 -8q-90 0 -166.5 24t-138.5 70l-106 -135h-74v33l123 155q-63 71 -98 170t-35 226q0 126 36 226.5t101 171t156 108.5t202 38q90 0 166.5 -25t136.5 -71l99 125h75v-31l-114 -145q65 -71 100 -171.5t35 -225.5q0 -127 -36 -227.5t-101 -170.5t-157 -107.5t-204 -37.5
zM563 72q91 0 164 31t124 90.5t78 145.5t27 196q0 204 -88 325l-557 -706q97 -82 252 -82zM172 535q0 -206 86 -324l555 707q-96 81 -250 81q-90 0 -162.5 -31.5t-123.5 -91.5t-78 -146t-27 -195z" />
    <glyph glyph-name="ugrave" unicode="&#xf9;" horiz-adv-x="1124" 
d="M870 156q-44 -34 -95.5 -64.5t-108.5 -53.5t-117.5 -36.5t-122.5 -13.5t-114.5 14t-91.5 46t-61 85.5t-22 132.5v801h105v-791q0 -61 15 -100.5t42 -62.5t63 -32t78 -9q61 0 119 14t112 38t104 54.5t95 63.5v825h103v-1067h-47q-17 0 -28 4t-17 16t-8.5 34.5t-2.5 60.5
v41zM533 1174l-193 219v41h100l154 -228v-32h-61z" />
    <glyph glyph-name="uacute" unicode="&#xfa;" horiz-adv-x="1124" 
d="M870 156q-44 -34 -95.5 -64.5t-108.5 -53.5t-117.5 -36.5t-122.5 -13.5t-114.5 14t-91.5 46t-61 85.5t-22 132.5v801h105v-791q0 -61 15 -100.5t42 -62.5t63 -32t78 -9q61 0 119 14t112 38t104 54.5t95 63.5v825h103v-1067h-47q-17 0 -28 4t-17 16t-8.5 34.5t-2.5 60.5
v41zM522 1174v32l153 228h103v-41l-193 -219h-63z" />
    <glyph glyph-name="ucircumflex" unicode="&#xfb;" horiz-adv-x="1124" 
d="M870 156q-44 -34 -95.5 -64.5t-108.5 -53.5t-117.5 -36.5t-122.5 -13.5t-114.5 14t-91.5 46t-61 85.5t-22 132.5v801h105v-791q0 -61 15 -100.5t42 -62.5t63 -32t78 -9q61 0 119 14t112 38t104 54.5t95 63.5v825h103v-1067h-47q-17 0 -28 4t-17 16t-8.5 34.5t-2.5 60.5
v41zM330 1212l188 222h82l184 -222v-38h-61l-168 178l-168 -178h-57v38z" />
    <glyph glyph-name="udieresis" unicode="&#xfc;" horiz-adv-x="1124" 
d="M870 156q-44 -34 -95.5 -64.5t-108.5 -53.5t-117.5 -36.5t-122.5 -13.5t-114.5 14t-91.5 46t-61 85.5t-22 132.5v801h105v-791q0 -61 15 -100.5t42 -62.5t63 -32t78 -9q61 0 119 14t112 38t104 54.5t95 63.5v825h103v-1067h-47q-17 0 -28 4t-17 16t-8.5 34.5t-2.5 60.5
v41zM411 1231q-29 0 -49 20t-20 47q0 29 20 49.5t49 20.5t49.5 -20.5t20.5 -49.5q0 -27 -20.5 -47t-49.5 -20zM704 1231q-28 0 -47.5 20t-19.5 47q0 29 19.5 49.5t47.5 20.5q29 0 49.5 -20.5t20.5 -49.5q0 -27 -20.5 -47t-49.5 -20z" />
    <glyph glyph-name="yacute" unicode="&#xfd;" horiz-adv-x="1032" 
d="M315 -299l162 373l-426 962v31h94l381 -872h2l361 872h92v-31l-575 -1368h-91v33zM490 1174v32l153 228h103v-41l-193 -219h-63z" />
    <glyph glyph-name="thorn" unicode="&#xfe;" horiz-adv-x="1133" 
d="M250 877q31 37 72 73t91.5 64.5t110.5 46.5t131 18q76 0 149.5 -25.5t131.5 -86t93.5 -162t35.5 -254.5q0 -158 -40.5 -264.5t-106 -170.5t-147.5 -91t-165 -27q-64 0 -116 9t-95 25.5t-78.5 39.5t-66.5 51v-455h-103v1766h46q18 0 29 -3.5t17 -14.5t8.5 -32t2.5 -55
v-452zM639 995q-65 0 -120.5 -18.5t-104 -49.5t-89.5 -70t-75 -81v-555q31 -35 66.5 -61t76.5 -44t89 -27t106 -9q66 0 132.5 20t120 72t87 141.5t33.5 227.5q0 91 -13.5 160t-37 119.5t-55 84t-67 53.5t-74 28.5t-75.5 8.5z" />
    <glyph glyph-name="ydieresis" unicode="&#xff;" horiz-adv-x="1032" 
d="M315 -299l162 373l-426 962v31h94l381 -872h2l361 872h92v-31l-575 -1368h-91v33zM378 1231q-29 0 -49 20t-20 47q0 29 20 49.5t49 20.5t49.5 -20.5t20.5 -49.5q0 -27 -20.5 -47t-49.5 -20zM671 1231q-28 0 -47.5 20t-19.5 47q0 29 19.5 49.5t47.5 20.5q29 0 49.5 -20.5
t20.5 -49.5q0 -27 -20.5 -47t-49.5 -20z" />
    <glyph glyph-name="dotlessi" unicode="&#x131;" horiz-adv-x="408" 
d="M152 0v1067h32q23 0 37 -3.5t21.5 -15t9.5 -33.5t2 -59v-956h-102z" />
    <glyph glyph-name="Lslash" unicode="&#x141;" horiz-adv-x="1106" 
d="M178 0v543l-174 -74v92l174 74v799h109v-752l487 209v-90l-487 -211v-500h747v-90h-856z" />
    <glyph glyph-name="lslash" unicode="&#x142;" horiz-adv-x="403" 
d="M152 0v758l-156 -105v88l156 105v588h34q23 0 36.5 -3.5t20.5 -14t9 -30t2 -51.5v-420l160 109v-88l-160 -109v-827h-102z" />
    <glyph glyph-name="OE" unicode="&#x152;" horiz-adv-x="1960" 
d="M807 0q-177 0 -312 40t-226 126t-137 222t-46 327q0 190 46 326.5t137 223.5t226.5 128t313.5 41h1053v-93h-725v-557h540v-90h-540v-604h753v-90h-1083zM809 1341q-155 0 -270 -34t-190.5 -108.5t-112.5 -193.5t-37 -288q0 -170 37 -289t112.5 -194t190.5 -109.5
t270 -34.5h217v1251h-217z" />
    <glyph glyph-name="oe" unicode="&#x153;" horiz-adv-x="1931" 
d="M563 -8q-111 0 -202 37.5t-156 107.5t-101 170.5t-36 227.5q0 126 36 226.5t101 171t156 108.5t202 38q164 0 278 -78.5t167 -222.5q27 71 68.5 127t95.5 94.5t119 59t139 20.5q98 0 179 -29t138.5 -90t89 -155.5t31.5 -224.5q0 -16 -1 -31t-1 -19h-805q0 -226 102 -340
t303 -114q64 0 115.5 9t92.5 24.5t72 35.5t52 41h45v-75q-29 -23 -65.5 -44t-83.5 -38t-106 -27t-132 -10q-174 0 -287.5 75.5t-162.5 215.5q-54 -140 -167.5 -215.5t-275.5 -75.5zM563 72q91 0 164 31t124 90.5t78 145.5t27 196q0 109 -27 195t-78 146t-124 91.5t-164 31.5
q-90 0 -162.5 -31.5t-123.5 -91.5t-78 -146t-27 -195q0 -110 27 -196t78 -145.5t123.5 -90.5t162.5 -31zM1430 1001q-74 0 -137 -24.5t-111 -73.5t-79 -123t-40 -172h700q-2 107 -26 181.5t-67.5 121.5t-104.5 68.5t-135 21.5z" />
    <glyph glyph-name="Scaron" unicode="&#x160;" horiz-adv-x="1042" 
d="M489 -8q-80 0 -146 10.5t-120 29t-97.5 43t-78.5 52.5v96h49q28 -29 64.5 -54.5t83.5 -45.5t107 -31.5t136 -11.5q82 0 150.5 17.5t117.5 54.5t76 95.5t27 139.5q0 79 -29 129t-79.5 83t-118.5 53.5t-146 41.5q-96 25 -171 55.5t-126.5 74t-78.5 105t-27 148.5
q0 78 28 144.5t82.5 115.5t135.5 77t186 28q67 0 123 -8.5t103 -23.5t85.5 -35.5t71.5 -45.5v-92h-51q-29 26 -61.5 47.5t-72 37t-88 24t-108.5 8.5q-87 0 -149.5 -20.5t-102.5 -57t-59 -85.5t-19 -106q0 -74 24.5 -121.5t68 -79t104 -52t133.5 -39.5q108 -29 192 -59.5
t141 -74.5t86.5 -107t29.5 -157q0 -104 -35 -180t-98 -125.5t-150.5 -73.5t-192.5 -24zM735 1669l-182 -188h-82l-178 188v37h59l162 -143l162 143h59v-37z" />
    <glyph glyph-name="scaron" unicode="&#x161;" horiz-adv-x="874" 
d="M416 -8q-69 0 -122.5 9.5t-95 24t-72.5 32t-54 34.5v84h41q19 -18 46.5 -36.5t64.5 -33.5t83.5 -24.5t104.5 -9.5q148 0 219 59t71 170q0 47 -14 81t-47.5 58.5t-88.5 41.5t-136 30q-77 12 -138.5 33t-105 54t-67 81.5t-23.5 116.5q0 69 26 121.5t73 88.5t113 54t146 18
q58 0 105.5 -7t85.5 -18.5t67 -25.5t52 -29v-84h-41q-22 18 -47 33.5t-56.5 26.5t-71.5 17.5t-92 6.5q-131 0 -197.5 -48.5t-66.5 -145.5q0 -46 14.5 -79t47.5 -56.5t86 -40t131 -29.5q84 -13 148.5 -33.5t108.5 -54t66.5 -83t22.5 -120.5q0 -74 -23 -132.5t-70.5 -99.5
t-120.5 -63t-173 -22zM659 1397l-188 -223h-82l-184 223v37h61l168 -177l168 177h57v-37z" />
    <glyph glyph-name="Ydieresis" unicode="&#x178;" horiz-adv-x="1126" 
d="M510 0v600l-457 789v45h94l420 -732h2l420 732h86v-45l-454 -785v-604h-111zM421 1501q-29 0 -49 20.5t-20 49.5q0 28 20 48.5t49 20.5t49.5 -20.5t20.5 -48.5q0 -29 -20.5 -49.5t-49.5 -20.5zM714 1501q-28 0 -47.5 20.5t-19.5 49.5q0 28 19.5 48.5t47.5 20.5
q29 0 49.5 -20.5t20.5 -48.5q0 -29 -20.5 -49.5t-49.5 -20.5z" />
    <glyph glyph-name="Zcaron" unicode="&#x17d;" horiz-adv-x="1090" 
d="M38 94l893 1249v3h-838v88h954v-97l-891 -1247v-4h869v-86h-987v94zM801 1669l-182 -188h-82l-178 188v37h59l162 -143l162 143h59v-37z" />
    <glyph glyph-name="zcaron" unicode="&#x17e;" horiz-adv-x="938" 
d="M70 80l708 907h-665v80h780v-82l-709 -905h697v-80h-811v80zM733 1397l-188 -223h-82l-184 223v37h61l168 -177l168 177h57v-37z" />
    <glyph glyph-name="florin" unicode="&#x192;" 
d="M506 874l37 300q8 71 31.5 121.5t59.5 82.5t84.5 47t106.5 15q37 0 66 -4t49 -11v-69h-92q-40 0 -74 -9.5t-59.5 -32t-42.5 -59t-23 -90.5l-37 -291h277v-81h-287l-117 -967h-106l117 967h-187v81h197z" />
    <glyph glyph-name="circumflex" unicode="&#x2c6;" horiz-adv-x="848" 
d="M197 1212l188 222h82l184 -222v-38h-61l-168 178l-168 -178h-57v38z" />
    <glyph glyph-name="caron" unicode="&#x2c7;" horiz-adv-x="848" 
d="M651 1397l-188 -223h-82l-184 223v37h61l168 -177l168 177h57v-37z" />
    <glyph glyph-name="breve" unicode="&#x2d8;" horiz-adv-x="848" 
d="M424 1178q-48 0 -87 15t-68.5 41t-49 60.5t-26.5 73.5v39h75q8 -69 48 -108t108 -39q69 0 109 39t47 108h75v-39q-8 -39 -27 -73.5t-48.5 -60.5t-68.5 -41t-87 -15z" />
    <glyph glyph-name="dotaccent" unicode="&#x2d9;" horiz-adv-x="848" 
d="M426 1231q-29 0 -49.5 20t-20.5 49q0 28 20.5 49t49.5 21q28 0 49 -21t21 -49q0 -29 -21 -49t-49 -20z" />
    <glyph glyph-name="ring" unicode="&#x2da;" horiz-adv-x="848" 
d="M424 1176q-35 0 -67.5 12t-57.5 34.5t-40 55t-15 72.5t15 72.5t40 55.5t57.5 35.5t67.5 12.5q34 0 66.5 -12.5t57 -35.5t39.5 -55.5t15 -72.5t-15 -72.5t-39.5 -55t-57 -34.5t-66.5 -12zM424 1243q43 0 73.5 29.5t30.5 77.5q0 49 -30.5 79.5t-73.5 30.5q-45 0 -75 -30.5
t-30 -79.5q0 -48 30 -77.5t75 -29.5z" />
    <glyph glyph-name="ogonek" unicode="&#x2db;" horiz-adv-x="823" 
d="M467 -336q-77 0 -122.5 38.5t-45.5 107.5q0 30 11.5 57t30 51.5t41.5 45t46 36.5h92q-59 -45 -92 -86.5t-33 -87.5q0 -40 23.5 -64t77.5 -24h65v-60q-20 -8 -42.5 -11t-51.5 -3z" />
    <glyph glyph-name="tilde" unicode="&#x2dc;" horiz-adv-x="848" 
d="M160 1239q5 28 17.5 52t31.5 42t44 28.5t56 10.5q34 0 63.5 -12.5t56.5 -27.5t51 -27.5t46 -12.5q35 0 56.5 24t27.5 62h70v-39q-6 -27 -18.5 -51.5t-31 -42.5t-43 -28.5t-55.5 -10.5q-35 0 -65 13t-56.5 28t-50 28t-45.5 13q-35 0 -57 -24t-29 -62h-69v37z" />
    <glyph glyph-name="hungarumlaut" unicode="&#x2dd;" horiz-adv-x="848" 
d="M276 1200l103 234h88v-41l-127 -219h-64v26zM518 1200l103 234h88v-41l-127 -219h-64v26z" />
    <glyph glyph-name="endash" unicode="&#x2013;" horiz-adv-x="809" 
d="M57 635h695v-92h-695v92z" />
    <glyph glyph-name="emdash" unicode="&#x2014;" horiz-adv-x="1352" 
d="M57 635h1237v-92h-1237v92z" />
    <glyph glyph-name="quoteleft" unicode="&#x2018;" horiz-adv-x="299" 
d="M233 1378q-34 -8 -54.5 -29t-20.5 -49q0 -20 10 -27.5t22 -17.5q17 -11 25 -24.5t8 -36.5q0 -31 -22 -50.5t-54 -19.5t-56.5 24.5t-24.5 84.5q0 95 44.5 145t122.5 64v-64z" />
    <glyph glyph-name="quoteright" unicode="&#x2019;" horiz-adv-x="299" 
d="M66 1190q34 8 54.5 29t20.5 49q0 18 -10.5 26.5t-24.5 16.5q-15 12 -22.5 26t-7.5 37q0 29 22 48.5t54 19.5t56.5 -24t24.5 -83q0 -97 -44.5 -146t-122.5 -63v64z" />
    <glyph glyph-name="quotesinglbase" unicode="&#x201a;" horiz-adv-x="299" 
d="M66 -88q34 8 54.5 29t20.5 49q0 20 -10.5 28t-24.5 17q-15 11 -22.5 25.5t-7.5 37.5q0 29 22 48.5t54 19.5t56.5 -24.5t24.5 -84.5q0 -95 -44.5 -145t-122.5 -64v64z" />
    <glyph glyph-name="quotedblleft" unicode="&#x201c;" horiz-adv-x="539" 
d="M233 1378q-34 -8 -54.5 -29t-20.5 -49q0 -20 10 -27.5t22 -17.5q17 -11 25 -24.5t8 -36.5q0 -31 -22 -50.5t-54 -19.5t-56.5 24.5t-24.5 84.5q0 95 44.5 145t122.5 64v-64zM473 1378q-34 -8 -55 -29t-21 -49q0 -20 10.5 -27.5l24.5 -17.5q16 -11 23.5 -24.5t7.5 -36.5
q0 -31 -22 -50.5t-54 -19.5q-16 0 -31 6t-26 18.5t-18 33.5t-7 51q0 95 45 145t123 64v-64z" />
    <glyph glyph-name="quotedblright" unicode="&#x201d;" horiz-adv-x="539" 
d="M305 1190q34 8 56 29t22 49q0 18 -11 26.5t-24 16.5q-17 12 -25 26t-8 37q0 29 22 48.5t54 19.5q16 0 31 -6t26 -18.5t18 -33t7 -49.5q0 -97 -44.5 -146t-123.5 -63v64zM66 1190q34 8 54.5 29t20.5 49q0 18 -10.5 26.5t-24.5 16.5q-15 12 -22.5 26t-7.5 37q0 29 22 48.5
t54 19.5t56.5 -24t24.5 -83q0 -97 -44.5 -146t-122.5 -63v64z" />
    <glyph glyph-name="quotedblbase" unicode="&#x201e;" horiz-adv-x="539" 
d="M305 -88q34 8 56 29t22 49q0 20 -11 28t-24 17q-17 11 -25 25.5t-8 37.5q0 29 22 48.5t54 19.5q16 0 31 -6t26 -18.5t18 -33.5t7 -51q0 -95 -44.5 -145t-123.5 -64v64zM66 -88q34 8 54.5 29t20.5 49q0 20 -10.5 28t-24.5 17q-15 11 -22.5 25.5t-7.5 37.5q0 29 22 48.5
t54 19.5t56.5 -24.5t24.5 -84.5q0 -95 -44.5 -145t-122.5 -64v64z" />
    <glyph glyph-name="dagger" unicode="&#x2020;" horiz-adv-x="858" 
d="M375 584v153l22 213l-221 -22h-115v100h115l221 -20l-20 184v242h106v-242l-18 -184l219 20h115v-100h-115l-219 22l20 -211v-155l-14 -684h-82z" />
    <glyph glyph-name="daggerdbl" unicode="&#x2021;" horiz-adv-x="858" 
d="M377 129l18 182l-219 -18h-115v98h115l219 -20l-20 207v178l22 207l-221 -21h-115v98h115l221 -18l-20 184v228h108v-228l-20 -184l219 18h115v-98h-115l-219 21l22 -207v-178l-24 -207l221 20h115v-98h-115l-221 18l22 -182v-229h-108v229z" />
    <glyph glyph-name="bullet" unicode="&#x2022;" horiz-adv-x="586" 
d="M293 379q-50 0 -93.5 16t-76 46.5t-51.5 74.5t-19 100q0 55 19 99t51.5 75t76 47.5t93.5 16.5q51 0 94.5 -16.5t75.5 -47.5t50.5 -75t18.5 -99q0 -56 -18.5 -100t-50.5 -74.5t-75.5 -46.5t-94.5 -16z" />
    <glyph glyph-name="ellipsis" unicode="&#x2026;" horiz-adv-x="956" 
d="M147 -8q-34 0 -55.5 22t-21.5 56q0 32 21.5 56t55.5 24q16 0 30.5 -6.5t25.5 -17.5t17.5 -25.5t6.5 -30.5q0 -34 -24 -56t-56 -22zM477 -8q-32 0 -55 22t-23 56q0 32 23 56t55 24q17 0 31.5 -6.5t25.5 -17.5t17 -25.5t6 -30.5q0 -34 -23 -56t-57 -22zM809 -8
q-34 0 -56 22t-22 56q0 32 22 56t56 24q16 0 30.5 -6.5t25.5 -17.5t17.5 -25.5t6.5 -30.5q0 -34 -24 -56t-56 -22z" />
    <glyph glyph-name="perthousand" unicode="&#x2030;" horiz-adv-x="2458" 
d="M440 805q48 0 87 18.5t67 54t43.5 87t15.5 118.5q0 69 -15.5 122t-43.5 89t-67 55t-87 19q-97 0 -155 -73.5t-58 -211.5q0 -134 58 -206t155 -72zM440 731q-63 0 -119.5 22.5t-99 67t-67.5 111t-25 155.5q0 88 25 155t67.5 111t99 66.5t119.5 22.5q62 0 118.5 -22.5
t99 -66.5t67.5 -111t25 -155q0 -89 -25 -155.5t-67.5 -111t-99 -67t-118.5 -22.5zM1313 1493h98l-1010 -1563h-98zM1272 66q48 0 87 18.5t67 54.5t43.5 88t15.5 119t-15.5 120t-43.5 89t-67 55t-87 19t-87.5 -19t-67.5 -55t-43 -89t-15 -120q0 -134 58 -207t155 -73z
M1272 -8q-63 0 -119.5 22.5t-99 67t-67.5 111t-25 155.5t25 156t67.5 111.5t99 67t119.5 22.5q62 0 118 -22.5t98.5 -67t67.5 -111.5t25 -156t-25 -155.5t-67.5 -111t-98.5 -67t-118 -22.5zM2015 66q48 0 87 18.5t67 54.5t43.5 88t15.5 119t-15.5 120t-43.5 89t-67 55
t-87 19t-87 -19t-67 -55t-43.5 -89t-15.5 -120t15.5 -119t43.5 -88t67 -54.5t87 -18.5zM2015 -8q-63 0 -119.5 22.5t-99 67t-67.5 111t-25 155.5t25 156t67.5 111.5t99 67t119.5 22.5t119.5 -22.5t99.5 -67t68 -111.5t25 -156t-25 -155.5t-68 -111t-99.5 -67t-119.5 -22.5z
" />
    <glyph glyph-name="guilsinglleft" unicode="&#x2039;" horiz-adv-x="535" 
d="M63 504v55l322 410h86v-39l-305 -395v-5l305 -397v-35h-86z" />
    <glyph glyph-name="guilsinglright" unicode="&#x203a;" horiz-adv-x="535" 
d="M471 559v-53l-321 -408h-87v35l306 397v7l-306 393v39h87z" />
    <glyph glyph-name="fraction" unicode="&#x2044;" horiz-adv-x="399" 
d="M-256 -70h-98l1009 1563h99z" />
    <glyph glyph-name="Euro" unicode="&#x20ac;" 
d="M334 569q29 -241 140 -365t288 -124q68 0 121 12t94 31.5t73 43.5t58 48h53v-70q-32 -30 -70 -57.5t-86 -48.5t-108.5 -34t-136.5 -13q-106 0 -197 37t-161.5 109.5t-116.5 180.5t-62 250h-149v80h143q-2 17 -2 35v37v36.5t2 37.5h-143v82h151q19 137 69 242.5t123 177
t163.5 108.5t191.5 37q68 0 120.5 -9t94.5 -25t77 -37t69 -46v-82h-50q-28 21 -57.5 41t-65 35.5t-80 25t-102.5 9.5q-86 0 -159.5 -30.5t-131 -90.5t-96.5 -149.5t-55 -206.5h516l-16 -82h-508q-2 -17 -2 -35v-35v-38.5t2 -37.5h481l-14 -80h-461z" />
    <glyph glyph-name="trademark" unicode="&#x2122;" horiz-adv-x="1268" 
d="M217 872v488h-174v74h444v-74h-176v-488h-94zM586 1434h139l147 -422h2l150 422h141v-562h-90v478h-2l-170 -478h-67l-168 478h-2v-478h-80v562z" />
    <glyph glyph-name="minus" unicode="&#x2212;" 
d="M207 662v92h819v-92h-819z" />
    <glyph glyph-name="fi" unicode="&#xfb01;" horiz-adv-x="958" 
d="M25 1067h141v107q0 70 19 120t52 82.5t79 48t100 15.5q38 0 64 -4t46 -9v-71h-86q-41 0 -73 -8.5t-54 -30.5t-33.5 -58.5t-11.5 -91.5v-100h258v-78h-258v-989h-102v989h-141v78zM702 0v1067h33q23 0 37 -3.5t21.5 -15t9.5 -33.5t2 -59v-956h-103zM756 1231
q-29 0 -49.5 20t-20.5 49q0 28 20.5 49t49.5 21t49 -21t20 -49q0 -29 -20 -49t-49 -20z" />
    <glyph glyph-name="fl" unicode="&#xfb02;" horiz-adv-x="952" 
d="M25 1067h141v107q0 70 19 120t52 82.5t79 48t100 15.5q38 0 64 -4t46 -9v-71h-86q-41 0 -73 -8.5t-54 -30.5t-33.5 -58.5t-11.5 -91.5v-100h258v-78h-258v-989h-102v989h-141v78zM700 0v1434h37q22 0 35.5 -3.5t20 -14t8.5 -30t2 -51.5v-1335h-103z" />
    <glyph glyph-name="grave.cap" horiz-adv-x="848" 
d="M410 1481l-158 184v39h102l117 -193v-30h-61z" />
    <glyph glyph-name="dieresis.cap" horiz-adv-x="848" 
d="M276 1501q-29 0 -49 20.5t-20 49.5q0 28 20 48.5t49 20.5t49.5 -20.5t20.5 -48.5q0 -29 -20.5 -49.5t-49.5 -20.5zM569 1501q-28 0 -47.5 20.5t-19.5 49.5q0 28 19.5 48.5t47.5 20.5q29 0 49.5 -20.5t20.5 -48.5q0 -29 -20.5 -49.5t-49.5 -20.5z" />
    <glyph glyph-name="macron.cap" horiz-adv-x="848" 
d="M659 1536h-471v80h471v-80z" />
    <glyph glyph-name="acute.cap" horiz-adv-x="848" 
d="M377 1511l121 193h98v-39l-156 -184h-63v30z" />
    <glyph glyph-name="circumflex.cap" horiz-adv-x="848" 
d="M203 1518l182 188h82l178 -188v-37h-61l-162 143l-160 -143h-59v37z" />
    <glyph glyph-name="caron.cap" horiz-adv-x="848" 
d="M645 1669l-182 -188h-82l-178 188v37h59l162 -143l162 143h59v-37z" />
    <glyph glyph-name="breve.cap" horiz-adv-x="848" 
d="M424 1485q-48 0 -87 13.5t-68.5 36.5t-49 54.5t-26.5 67.5v41h73q8 -63 49 -96t109 -33q69 0 109 33t47 96h75v-41q-8 -36 -27 -67.5t-48.5 -54.5t-68.5 -36.5t-87 -13.5z" />
    <glyph glyph-name="dotaccent.cap" horiz-adv-x="848" 
d="M426 1503q-29 0 -49.5 21t-20.5 49q0 29 20.5 49t49.5 20q28 0 49 -20t21 -49q0 -28 -21 -49t-49 -21z" />
    <glyph glyph-name="ring.cap" horiz-adv-x="848" 
d="M424 1489q-35 0 -67.5 12t-57.5 34.5t-40 54.5t-15 73q0 40 15 72.5t40 55.5t57.5 35.5t67.5 12.5q34 0 66.5 -12.5t57 -35.5t39.5 -55.5t15 -72.5q0 -41 -15 -73t-39.5 -54.5t-57 -34.5t-66.5 -12zM424 1556q43 0 73.5 28.5t30.5 78.5q0 24 -8 44t-22.5 34.5t-33.5 22.5
t-40 8q-45 0 -75 -30.5t-30 -78.5q0 -50 30 -78.5t75 -28.5z" />
    <glyph glyph-name="tilde.cap" horiz-adv-x="848" 
d="M160 1538q5 27 17.5 51t31.5 42.5t44 29t56 10.5q34 0 63.5 -13t56.5 -28t51 -28t46 -13q35 0 56.5 24.5t27.5 61.5h70v-37q-6 -28 -18.5 -52.5t-31 -42.5t-43 -28t-55.5 -10q-35 0 -65 12.5t-56.5 27.5t-50 27.5t-45.5 12.5q-35 0 -57 -23t-29 -63h-69v39z" />
    <glyph glyph-name="hungarumlaut.cap" horiz-adv-x="848" 
d="M276 1507l84 197h91v-39l-111 -184h-64v26zM518 1507l84 197h90v-39l-110 -184h-64v26z" />
    </font>
</defs>
</svg>
